<?xml version="1.0" encoding="UTF-8" standalone="no"?>
<!-- Created with Inkscape (http://www.inkscape.org/) -->

<svg
   xmlns:dc="http://purl.org/dc/elements/1.1/"
   xmlns:cc="http://creativecommons.org/ns#"
   xmlns:rdf="http://www.w3.org/1999/02/22-rdf-syntax-ns#"
   xmlns:svg="http://www.w3.org/2000/svg"
   xmlns="http://www.w3.org/2000/svg"
   xmlns:sodipodi="http://sodipodi.sourceforge.net/DTD/sodipodi-0.dtd"
   xmlns:inkscape="http://www.inkscape.org/namespaces/inkscape"
   version="1.1"
   id="svg815"
   width="192.94084"
   height="109.96555"
   viewBox="0 0 192.94084 109.96555"
   sodipodi:docname="colab.svg"
   inkscape:version="0.92.4 (5da689c313, 2019-01-14)">
  <metadata
     id="metadata821">
    <rdf:RDF>
      <cc:Work
         rdf:about="">
        <dc:format>image/svg+xml</dc:format>
        <dc:type
           rdf:resource="http://purl.org/dc/dcmitype/StillImage" />
        <dc:title></dc:title>
      </cc:Work>
    </rdf:RDF>
  </metadata>
  <defs
     id="defs819" />
  <sodipodi:namedview
     pagecolor="#ffffff"
     bordercolor="#666666"
     borderopacity="1"
     objecttolerance="10"
     gridtolerance="10"
     guidetolerance="10"
     inkscape:pageopacity="0"
     inkscape:pageshadow="2"
     inkscape:window-width="1920"
     inkscape:window-height="1001"
     id="namedview817"
     showgrid="false"
     fit-margin-top="0"
     fit-margin-left="0"
     fit-margin-right="0"
     fit-margin-bottom="0"
     inkscape:zoom="1.1159029"
     inkscape:cx="46.958567"
     inkscape:cy="16.714749"
     inkscape:window-x="-9"
     inkscape:window-y="-9"
     inkscape:window-maximized="1"
     inkscape:current-layer="g833" />
  <g
     id="g833"
     transform="translate(-31.624814,-72.903335)">
    <path
       style="fill:#fed634"
       d="M 71.5,181.1945 C 47.740168,174.12514 31.583494,152.57169 31.624893,128 31.65041,112.85544 37.077179,99.946074 48.058657,88.90686 64.018032,72.863577 88.014767,68.432407 108.94863,77.663086 115.68675,80.634224 121,84.597275 121,86.651971 121,88.615885 108.98894,108 107.77204,108 c -0.49802,0 -2.36218,-1.11108 -4.14259,-2.46906 -5.248108,-4.00293 -10.064798,-5.53256 -17.347331,-5.50898 -25.481807,0.0825 -37.941811,30.92731 -19.472185,48.20349 6.522751,6.10127 12.145149,8.09641 21.486664,7.62469 6.252969,-0.31576 8.238295,-0.8837 12.627862,-3.6124 C 103.7891,150.45698 106.46771,149 106.87694,149 107.89222,149 121,168.29059 121,169.78478 c 0,1.80909 -9.73048,7.88298 -16.5,10.29951 -8.450749,3.01668 -24.749499,3.56502 -33,1.11021 z m 83.61233,0.22495 c -17.20762,-4.62771 -32.35707,-18.96302 -38.28653,-36.22901 -3.25797,-9.48687 -3.25797,-24.89401 0,-34.38088 5.9933,-17.451889 20.09967,-30.851723 38.1057,-36.197125 7.14147,-2.120068 21.99553,-2.120068 29.137,0 14.75298,4.379678 28.33938,15.569983 34.7316,28.606335 15.53752,31.68734 -1.63514,69.20176 -35.84544,78.30589 -6.89653,1.83531 -20.82237,1.78269 -27.84233,-0.10521 z M 181,153.86951 c 18.19302,-7.94509 22.72145,-32.65387 8.40337,-45.85181 -6.45085,-5.94619 -11.49809,-7.97133 -19.90337,-7.98597 -8.98282,-0.0156 -15.49086,2.87886 -21.29273,9.47014 -9.61545,10.92373 -9.42523,26.4782 0.45824,37.47099 8.63342,9.60245 20.39451,12.11098 32.33449,6.89665 z"
       id="path837"
       inkscape:connector-curvature="0" />
    <path
       style="fill:#fec007"
       d="m 155.03382,179.39936 c -6.65818,-1.78936 -16.5607,-7.21585 -20.26848,-11.10693 l -2.73466,-2.86985 7.88468,-7.83844 7.88468,-7.83844 3.40381,2.59621 c 5.23054,3.98953 10.71274,5.88725 17.29615,5.98725 11.9573,0.18162 22.11453,-5.78718 28.0337,-16.47375 2.63572,-4.75857 2.9663,-6.3027 2.9663,-13.85541 0,-8.68318 -0.51876,-10.24671 -6.55306,-19.75085 -1.36009,-2.14216 -1.05663,-2.62333 6.28397,-9.963931 l 7.71307,-7.713071 3.08864,2.959108 c 4.6186,4.424893 10.55193,17.077014 11.98062,25.547224 2.75926,16.35874 -2.08976,32.40946 -13.52133,44.75692 -7.02746,7.59049 -13.50994,11.74763 -23.03606,14.77273 -8.85943,2.81339 -21.65892,3.14629 -30.42203,0.79123 z M 46.936679,163.25 C 44.041476,160.0875 40.388113,154.7606 38.818094,151.41244 35.787867,144.9503 33.034727,133.80494 33.034727,128 c 0,-6.06506 2.836299,-17.26359 6.008662,-23.72394 C 42.148851,97.951957 51.234441,87 53.37537,87 c 0.646077,0 4.504377,3.352063 8.574,7.44903 l 7.399315,7.44903 -4.103302,4.45156 c -6.985364,7.57822 -8.721386,11.88781 -8.721386,21.65038 0,9.76257 1.736022,14.07216 8.721386,21.65038 l 4.103302,4.45156 -7.399315,7.44903 C 57.879747,165.64794 54.021447,169 53.37537,169 c -0.646077,0 -3.543488,-2.5875 -6.438691,-5.75 z"
       id="path835"
       inkscape:connector-curvature="0" />
  </g>
</svg>
