<?xml version="1.0" encoding="UTF-8" standalone="no"?>
<svg
   xmlns:dc="http://purl.org/dc/elements/1.1/"
   xmlns:cc="http://creativecommons.org/ns#"
   xmlns:rdf="http://www.w3.org/1999/02/22-rdf-syntax-ns#"
   xmlns:svg="http://www.w3.org/2000/svg"
   xmlns="http://www.w3.org/2000/svg"
   xmlns:sodipodi="http://sodipodi.sourceforge.net/DTD/sodipodi-0.dtd"
   xmlns:inkscape="http://www.inkscape.org/namespaces/inkscape"
   version="1.0"
   width="863.88507"
   height="472.63809"
   id="svg48"
   sodipodi:docname="Harmonic_partials_on_strings.svg"
   inkscape:version="0.92.4 (5da689c313, 2019-01-14)">
  <metadata
     id="metadata54">
    <rdf:RDF>
      <cc:Work
         rdf:about="">
        <dc:format>image/svg+xml</dc:format>
        <dc:type
           rdf:resource="http://purl.org/dc/dcmitype/StillImage" />
        <dc:title></dc:title>
      </cc:Work>
    </rdf:RDF>
  </metadata>
  <defs
     id="defs52" />
  <sodipodi:namedview
     pagecolor="#ffffff"
     bordercolor="#666666"
     borderopacity="1"
     objecttolerance="10"
     gridtolerance="10"
     guidetolerance="10"
     inkscape:pageopacity="0"
     inkscape:pageshadow="2"
     inkscape:window-width="1600"
     inkscape:window-height="821"
     id="namedview50"
     showgrid="false"
     inkscape:zoom="0.56568542"
     inkscape:cx="557.87303"
     inkscape:cy="292.4661"
     inkscape:window-x="-9"
     inkscape:window-y="-9"
     inkscape:window-maximized="1"
     inkscape:current-layer="g46"
     fit-margin-top="0"
     fit-margin-left="0"
     fit-margin-right="0"
     fit-margin-bottom="0" />
  <path
     d="m 60.685038,31.888103 c 50.000002,7.8361 100.000002,15.6722 150.000002,21.2132 50,5.541 100,8.7868 150,8.7868 50,0 100,-3.2458 150,-8.7868 50,-5.541 100,-13.3771 150,-21.2132 m -600.000002,0 c 50.000002,-7.8361 100.000002,-15.6722 150.000002,-21.2132 50,-5.541 100,-8.7868 150,-8.7868 50,0 100,3.2458 150,8.7868 50,5.541 100,13.3771 150,21.2132"
     id="path2"
     inkscape:connector-curvature="0"
     style="fill:none;stroke:#000000;stroke-width:1.5" />
  <path
     d="m 60.685038,116.8881 c 25,7.053 50.000002,14.105 75.000002,19.092 25,4.987 50,7.908 75,7.908 25,0 50,-2.921 75,-7.908 25,-4.987 50,-12.039 75,-19.092 25,-7.053 50,-14.105 75,-19.091997 25,-4.987 50,-7.908 75,-7.908 25,0 50,2.921 75,7.908 25,4.986997 50,12.038997 75,19.091997 m -600.000002,0 c 25,-7.053 50.000002,-14.105 75.000002,-19.091997 25,-4.987 50,-7.908 75,-7.908 25,0 50,2.921 75,7.908 25,4.986997 50,12.038997 75,19.091997 25,7.053 50,14.105 75,19.092 25,4.987 50,7.908 75,7.908 25,0 50,-2.921 75,-7.908 25,-4.987 50,-12.039 75,-19.092"
     id="path4"
     inkscape:connector-curvature="0"
     style="fill:none;stroke:#000000;stroke-width:1.5" />
  <path
     d="m 60.685038,201.8881 c 16.6667,6.269 33.3333,12.538 50.000002,16.971 16.6667,4.432 33.3333,7.029 50,7.029 16.667,0 33.333,-2.597 50,-7.029 16.667,-4.433 33.333,-10.702 50,-16.971 16.667,-6.269 33.333,-12.538 50,-16.971 16.667,-4.432 33.333,-7.029 50,-7.029 16.667,0 33.333,2.597 50,7.029 16.667,4.433 33.333,10.702 50,16.971 16.667,6.269 33.333,12.538 50,16.971 16.667,4.432 33.333,7.029 50,7.029 16.667,0 33.333,-2.597 50,-7.029 16.667,-4.433 33.333,-10.702 50,-16.971 m -600.000002,0 c 16.6667,-6.269 33.3333,-12.538 50.000002,-16.971 16.6667,-4.432 33.3333,-7.029 50,-7.029 16.667,0 33.333,2.597 50,7.029 16.667,4.433 33.333,10.702 50,16.971 16.667,6.269 33.333,12.538 50,16.971 16.667,4.432 33.333,7.029 50,7.029 16.667,0 33.333,-2.597 50,-7.029 16.667,-4.433 33.333,-10.702 50,-16.971 16.667,-6.269 33.333,-12.538 50,-16.971 16.667,-4.432 33.333,-7.029 50,-7.029 16.667,0 33.333,2.597 50,7.029 16.667,4.433 33.333,10.702 50,16.971"
     id="path6"
     inkscape:connector-curvature="0"
     style="fill:none;stroke:#000000;stroke-width:1.5" />
  <path
     d="m 60.685038,286.8881 c 12.5,5.485 25,10.971 37.5,14.849 12.500002,3.879 25.000002,6.151 37.500002,6.151 12.5,0 25,-2.272 37.5,-6.151 12.5,-3.878 25,-9.364 37.5,-14.849 12.5,-5.485 25,-10.971 37.5,-14.849 12.5,-3.879 25,-6.151 37.5,-6.151 12.5,0 25,2.272 37.5,6.151 12.5,3.878 25,9.364 37.5,14.849 12.5,5.485 25,10.971 37.5,14.849 12.5,3.879 25,6.151 37.5,6.151 12.5,0 25,-2.272 37.5,-6.151 12.5,-3.878 25,-9.364 37.5,-14.849 12.5,-5.485 25,-10.971 37.5,-14.849 12.5,-3.879 25,-6.151 37.5,-6.151 12.5,0 25,2.272 37.5,6.151 12.5,3.878 25,9.364 37.5,14.849 m -600.000002,0 c 12.5,-5.485 25,-10.971 37.5,-14.849 12.500002,-3.879 25.000002,-6.151 37.500002,-6.151 12.5,0 25,2.272 37.5,6.151 12.5,3.878 25,9.364 37.5,14.849 12.5,5.485 25,10.971 37.5,14.849 12.5,3.879 25,6.151 37.5,6.151 12.5,0 25,-2.272 37.5,-6.151 12.5,-3.878 25,-9.364 37.5,-14.849 12.5,-5.485 25,-10.971 37.5,-14.849 12.5,-3.879 25,-6.151 37.5,-6.151 12.5,0 25,2.272 37.5,6.151 12.5,3.878 25,9.364 37.5,14.849 12.5,5.485 25,10.971 37.5,14.849 12.5,3.879 25,6.151 37.5,6.151 12.5,0 25,-2.272 37.5,-6.151 12.5,-3.878 25,-9.364 37.5,-14.849"
     id="path8"
     inkscape:connector-curvature="0"
     style="fill:none;stroke:#000000;stroke-width:1.5" />
  <path
     d="m 60.685038,371.8881 c 10,4.702 20,9.403 30,12.728 10.000002,3.325 20.000002,5.272 30.000002,5.272 10,0 20,-1.947 30,-5.272 10,-3.325 20,-8.026 30,-12.728 10,-4.702 20,-9.403 30,-12.728 10,-3.325 20,-5.272 30,-5.272 10,0 20,1.947 30,5.272 10,3.325 20,8.026 30,12.728 10,4.702 20,9.403 30,12.728 10,3.325 20,5.272 30,5.272 10,0 20,-1.947 30,-5.272 10,-3.325 20,-8.026 30,-12.728 10,-4.702 20,-9.403 30,-12.728 10,-3.325 20,-5.272 30,-5.272 10,0 20,1.947 30,5.272 10,3.325 20,8.026 30,12.728 10,4.702 20,9.403 30,12.728 10,3.325 20,5.272 30,5.272 10,0 20,-1.947 30,-5.272 10,-3.325 20,-8.026 30,-12.728 m -600.000002,0 c 10,-4.702 20,-9.403 30,-12.728 10.000002,-3.325 20.000002,-5.272 30.000002,-5.272 10,0 20,1.947 30,5.272 10,3.325 20,8.026 30,12.728 10,4.702 20,9.403 30,12.728 10,3.325 20,5.272 30,5.272 10,0 20,-1.947 30,-5.272 10,-3.325 20,-8.026 30,-12.728 10,-4.702 20,-9.403 30,-12.728 10,-3.325 20,-5.272 30,-5.272 10,0 20,1.947 30,5.272 10,3.325 20,8.026 30,12.728 10,4.702 20,9.403 30,12.728 10,3.325 20,5.272 30,5.272 10,0 20,-1.947 30,-5.272 10,-3.325 20,-8.026 30,-12.728 10,-4.702 20,-9.403 30,-12.728 10,-3.325 20,-5.272 30,-5.272 10,0 20,1.947 30,5.272 10,3.325 20,8.026 30,12.728"
     id="path10"
     inkscape:connector-curvature="0"
     style="fill:none;stroke:#000000;stroke-width:1.5" />
  <path
     d="m 60.685038,456.8881 c 8.3333,3.918 16.6667,7.836 25,10.607 8.3333,2.77 16.666702,4.393 25.000002,4.393 8.3333,0 16.6667,-1.623 25,-4.393 8.3333,-2.771 16.667,-6.689 25,-10.607 8.333,-3.918 16.667,-7.836 25,-10.607 8.333,-2.77 16.667,-4.393 25,-4.393 8.333,0 16.667,1.623 25,4.393 8.333,2.771 16.667,6.689 25,10.607 8.333,3.918 16.667,7.836 25,10.607 8.333,2.77 16.667,4.393 25,4.393 8.333,0 16.667,-1.623 25,-4.393 8.333,-2.771 16.667,-6.689 25,-10.607 8.333,-3.918 16.667,-7.836 25,-10.607 8.333,-2.77 16.667,-4.393 25,-4.393 8.333,0 16.667,1.623 25,4.393 8.333,2.771 16.667,6.689 25,10.607 8.333,3.918 16.667,7.836 25,10.607 8.333,2.77 16.667,4.393 25,4.393 8.333,0 16.667,-1.623 25,-4.393 8.333,-2.771 16.667,-6.689 25,-10.607 8.333,-3.918 16.667,-7.836 25,-10.607 8.333,-2.77 16.667,-4.393 25,-4.393 8.333,0 16.667,1.623 25,4.393 8.333,2.771 16.667,6.689 25,10.607 m -600.000002,0 c 8.3333,-3.918 16.6667,-7.836 25,-10.607 8.3333,-2.77 16.666702,-4.393 25.000002,-4.393 8.3333,0 16.6667,1.623 25,4.393 8.3333,2.771 16.667,6.689 25,10.607 8.333,3.918 16.667,7.836 25,10.607 8.333,2.77 16.667,4.393 25,4.393 8.333,0 16.667,-1.623 25,-4.393 8.333,-2.771 16.667,-6.689 25,-10.607 8.333,-3.918 16.667,-7.836 25,-10.607 8.333,-2.77 16.667,-4.393 25,-4.393 8.333,0 16.667,1.623 25,4.393 8.333,2.771 16.667,6.689 25,10.607 8.333,3.918 16.667,7.836 25,10.607 8.333,2.77 16.667,4.393 25,4.393 8.333,0 16.667,-1.623 25,-4.393 8.333,-2.771 16.667,-6.689 25,-10.607 8.333,-3.918 16.667,-7.836 25,-10.607 8.333,-2.77 16.667,-4.393 25,-4.393 8.333,0 16.667,1.623 25,4.393 8.333,2.771 16.667,6.689 25,10.607 8.333,3.918 16.667,7.836 25,10.607 8.333,2.77 16.667,4.393 25,4.393 8.333,0 16.667,-1.623 25,-4.393 8.333,-2.771 16.667,-6.689 25,-10.607"
     id="path12"
     inkscape:connector-curvature="0"
     style="fill:none;stroke:#000000;stroke-width:1.5" />
  <g
     id="g28"
     style="fill:#bbbbbb;stroke:#000000"
     transform="translate(50.685038,-8.1118969)">
    <circle
       cx="310"
       cy="131"
       r="6"
       id="circle16" />
    <circle
       cx="210"
       cy="216"
       r="6"
       id="circle18" />
    <circle
       cx="160"
       cy="301"
       r="6"
       id="circle20" />
    <circle
       cx="130"
       cy="386"
       r="6"
       id="circle22" />
    <circle
       cx="110"
       cy="471"
       r="6"
       id="circle24" />
  </g>
  <g
     font-size="20px"
     id="g46"
     style="font-size:20px;font-family:'Bitstream Vera Sans';text-anchor:middle"
     transform="translate(50.685038,-8.1118969)">
    <text
       x="15"
       y="30"
       id="text30"
       style="font-style:normal;font-variant:normal;font-weight:normal;font-stretch:normal;font-size:32.38933182px;font-family:'Times New Roman';-inkscape-font-specification:'Times New Roman, Normal';font-variant-ligatures:normal;font-variant-caps:normal;font-variant-numeric:normal;font-feature-settings:normal;text-align:center;writing-mode:lr-tb;text-anchor:middle">0</text>
    <text
       x="605"
       y="30"
       id="text32"
       style="font-style:normal;font-variant:normal;font-weight:normal;font-stretch:normal;font-size:32.38933182px;font-family:'Times New Roman';-inkscape-font-specification:'Times New Roman, Normal';font-variant-ligatures:normal;font-variant-caps:normal;font-variant-numeric:normal;font-feature-settings:normal;text-align:center;writing-mode:lr-tb;text-anchor:middle">1</text>
    <text
       x="310"
       y="115"
       id="text34"
       style="font-style:normal;font-variant:normal;font-weight:normal;font-stretch:normal;font-size:32.38933182px;font-family:'Times New Roman';-inkscape-font-specification:'Times New Roman, Normal';font-variant-ligatures:normal;font-variant-caps:normal;font-variant-numeric:normal;font-feature-settings:normal;text-align:center;writing-mode:lr-tb;text-anchor:middle">1/2</text>
    <text
       x="210"
       y="200"
       id="text36"
       style="font-style:normal;font-variant:normal;font-weight:normal;font-stretch:normal;font-size:32.38933182px;font-family:'Times New Roman';-inkscape-font-specification:'Times New Roman, Normal';font-variant-ligatures:normal;font-variant-caps:normal;font-variant-numeric:normal;font-feature-settings:normal;text-align:center;writing-mode:lr-tb;text-anchor:middle">1/3</text>
    <text
       x="160"
       y="285"
       id="text38"
       style="font-style:normal;font-variant:normal;font-weight:normal;font-stretch:normal;font-size:32.38933182px;font-family:'Times New Roman';-inkscape-font-specification:'Times New Roman, Normal';font-variant-ligatures:normal;font-variant-caps:normal;font-variant-numeric:normal;font-feature-settings:normal;text-align:center;writing-mode:lr-tb;text-anchor:middle">1/4</text>
    <text
       x="130"
       y="370"
       id="text40"
       style="font-style:normal;font-variant:normal;font-weight:normal;font-stretch:normal;font-size:32.38933182px;font-family:'Times New Roman';-inkscape-font-specification:'Times New Roman, Normal';font-variant-ligatures:normal;font-variant-caps:normal;font-variant-numeric:normal;font-feature-settings:normal;text-align:center;writing-mode:lr-tb;text-anchor:middle">1/5</text>
    <text
       x="110"
       y="455"
       id="text42"
       style="font-style:normal;font-variant:normal;font-weight:normal;font-stretch:normal;font-size:32.38933182px;font-family:'Times New Roman';-inkscape-font-specification:'Times New Roman, Normal';font-variant-ligatures:normal;font-variant-caps:normal;font-variant-numeric:normal;font-feature-settings:normal;text-align:center;writing-mode:lr-tb;text-anchor:middle">1/6</text>
    <g
       id="g1109"
       transform="translate(840)">
      <text
         style="font-style:normal;font-variant:normal;font-weight:normal;font-stretch:normal;font-size:32.38933182px;font-family:'Times New Roman';-inkscape-font-specification:'Times New Roman, Normal';font-variant-ligatures:normal;font-variant-caps:normal;font-variant-numeric:normal;font-feature-settings:normal;text-align:center;writing-mode:lr-tb;text-anchor:middle;stroke-width:1.98084295"
         id="text44"
         y="39.375"
         x="-112.96067">
        <tspan
           style="font-style:normal;font-variant:normal;font-weight:normal;font-stretch:normal;font-size:32.38933182px;font-family:'Times New Roman';-inkscape-font-specification:'Times New Roman, Normal';font-variant-ligatures:normal;font-variant-caps:normal;font-variant-numeric:normal;font-feature-settings:normal;text-align:center;writing-mode:lr-tb;text-anchor:middle;stroke-width:1.98084295"
           y="39.375"
           x="-112.96067"
           id="tspan864"
           sodipodi:role="line">1·f = 132 Hz</tspan>
      </text>
      <text
         style="font-style:normal;font-variant:normal;font-weight:normal;font-stretch:normal;font-size:32.38933182px;font-family:'Times New Roman';-inkscape-font-specification:'Times New Roman, Normal';font-variant-ligatures:normal;font-variant-caps:normal;font-variant-numeric:normal;font-feature-settings:normal;text-align:center;writing-mode:lr-tb;text-anchor:middle;stroke-width:1.98084295"
         id="text44-9"
         y="126.89923"
         x="-109.86091">
        <tspan
           y="126.89923"
           x="-109.86091"
           id="tspan918"
           sodipodi:role="line">2·f = 264 Hz</tspan>
      </text>
      <text
         style="font-style:normal;font-variant:normal;font-weight:normal;font-stretch:normal;font-size:32.38933182px;font-family:'Times New Roman';-inkscape-font-specification:'Times New Roman, Normal';font-variant-ligatures:normal;font-variant-caps:normal;font-variant-numeric:normal;font-feature-settings:normal;text-align:center;writing-mode:lr-tb;text-anchor:middle;stroke-width:1.98084295"
         id="text44-1"
         y="213.82379"
         x="-110.4777">
        <tspan
           y="213.82379"
           x="-110.4777"
           id="tspan920"
           sodipodi:role="line">3·f = 396 Hz</tspan>
        <tspan
           y="254.31046"
           x="-110.4777"
           id="tspan922"
           sodipodi:role="line"></tspan>
      </text>
      <text
         style="font-style:normal;font-variant:normal;font-weight:normal;font-stretch:normal;font-size:32.38933182px;font-family:'Times New Roman';-inkscape-font-specification:'Times New Roman, Normal';font-variant-ligatures:normal;font-variant-caps:normal;font-variant-numeric:normal;font-feature-settings:normal;text-align:center;writing-mode:lr-tb;text-anchor:middle;stroke-width:1.98084295"
         id="text44-7"
         y="301.94769"
         x="-109.67113">
        <tspan
           y="301.94769"
           x="-109.67113"
           id="tspan924"
           sodipodi:role="line">4·f = 528 Hz</tspan>
      </text>
      <text
         style="font-style:normal;font-variant:normal;font-weight:normal;font-stretch:normal;font-size:32.38933182px;font-family:'Times New Roman';-inkscape-font-specification:'Times New Roman, Normal';font-variant-ligatures:normal;font-variant-caps:normal;font-variant-numeric:normal;font-feature-settings:normal;text-align:center;writing-mode:lr-tb;text-anchor:middle;stroke-width:1.98084295"
         id="text44-5"
         y="388.87225"
         x="-110.71493">
        <tspan
           y="388.87225"
           x="-110.71493"
           id="tspan926"
           sodipodi:role="line">5·f = 660 Hz</tspan>
      </text>
      <text
         style="font-style:normal;font-variant:normal;font-weight:normal;font-stretch:normal;font-size:32.38933182px;font-family:'Times New Roman';-inkscape-font-specification:'Times New Roman, Normal';font-variant-ligatures:normal;font-variant-caps:normal;font-variant-numeric:normal;font-feature-settings:normal;text-align:center;writing-mode:lr-tb;text-anchor:middle;stroke-width:1.98084295"
         id="text44-4"
         y="476.39648"
         x="-110.55677">
        <tspan
           y="476.39648"
           x="-110.55677"
           id="tspan928"
           sodipodi:role="line">6·f = 792 Hz</tspan>
      </text>
    </g>
    <g
       id="g1094"
       transform="translate(-700)">
      <text
         style="font-style:normal;font-variant:normal;font-weight:normal;font-stretch:normal;font-size:32.38933182px;font-family:'Times New Roman';-inkscape-font-specification:'Times New Roman, Normal';font-variant-ligatures:normal;font-variant-caps:normal;font-variant-numeric:normal;font-feature-settings:normal;text-align:center;writing-mode:lr-tb;text-anchor:middle;stroke-width:1.98084295"
         id="text44-51"
         y="38.835903"
         x="667.05951">
        <tspan
           style="font-style:normal;font-variant:normal;font-weight:normal;font-stretch:normal;font-size:32.38933182px;font-family:'Times New Roman';-inkscape-font-specification:'Times New Roman, Normal';font-variant-ligatures:normal;font-variant-caps:normal;font-variant-numeric:normal;font-feature-settings:normal;text-align:center;writing-mode:lr-tb;text-anchor:middle;stroke-width:1.98084295"
           y="38.835903"
           x="667.05951"
           id="tspan864-6"
           sodipodi:role="line">C3</tspan>
      </text>
      <text
         style="font-style:normal;font-variant:normal;font-weight:normal;font-stretch:normal;font-size:32.38933182px;font-family:'Times New Roman';-inkscape-font-specification:'Times New Roman, Normal';font-variant-ligatures:normal;font-variant-caps:normal;font-variant-numeric:normal;font-feature-settings:normal;text-align:center;writing-mode:lr-tb;text-anchor:middle;stroke-width:1.98084295"
         id="text44-9-2"
         y="126.36014"
         x="667.05951">
        <tspan
           y="126.36014"
           x="667.05951"
           id="tspan918-6"
           sodipodi:role="line">C4</tspan>
      </text>
      <text
         style="font-style:normal;font-variant:normal;font-weight:normal;font-stretch:normal;font-size:32.38933182px;font-family:'Times New Roman';-inkscape-font-specification:'Times New Roman, Normal';font-variant-ligatures:normal;font-variant-caps:normal;font-variant-numeric:normal;font-feature-settings:normal;text-align:center;writing-mode:lr-tb;text-anchor:middle;stroke-width:1.98084295"
         id="text44-1-9"
         y="213.2847"
         x="667.97681">
        <tspan
           y="213.2847"
           x="667.97681"
           id="tspan920-1"
           sodipodi:role="line">G4</tspan>
        <tspan
           y="253.77136"
           x="667.97681"
           id="tspan922-2"
           sodipodi:role="line" />
      </text>
      <text
         style="font-style:normal;font-variant:normal;font-weight:normal;font-stretch:normal;font-size:32.38933182px;font-family:'Times New Roman';-inkscape-font-specification:'Times New Roman, Normal';font-variant-ligatures:normal;font-variant-caps:normal;font-variant-numeric:normal;font-feature-settings:normal;text-align:center;writing-mode:lr-tb;text-anchor:middle;stroke-width:1.98084295"
         id="text44-7-5"
         y="301.4086"
         x="667.05951">
        <tspan
           y="301.4086"
           x="667.05951"
           id="tspan924-8"
           sodipodi:role="line">C5</tspan>
      </text>
      <text
         style="font-style:normal;font-variant:normal;font-weight:normal;font-stretch:normal;font-size:32.38933182px;font-family:'Times New Roman';-inkscape-font-specification:'Times New Roman, Normal';font-variant-ligatures:normal;font-variant-caps:normal;font-variant-numeric:normal;font-feature-settings:normal;text-align:center;writing-mode:lr-tb;text-anchor:middle;stroke-width:1.98084295"
         id="text44-5-5"
         y="388.33316"
         x="666.64832">
        <tspan
           y="388.33316"
           x="666.64832"
           id="tspan926-0"
           sodipodi:role="line">E5</tspan>
      </text>
      <text
         style="font-style:normal;font-variant:normal;font-weight:normal;font-stretch:normal;font-size:32.38933182px;font-family:'Times New Roman';-inkscape-font-specification:'Times New Roman, Normal';font-variant-ligatures:normal;font-variant-caps:normal;font-variant-numeric:normal;font-feature-settings:normal;text-align:center;writing-mode:lr-tb;text-anchor:middle;stroke-width:1.98084295"
         id="text44-4-1"
         y="475.85739"
         x="667.97681">
        <tspan
           y="475.85739"
           x="667.97681"
           id="tspan928-8"
           sodipodi:role="line">G5</tspan>
      </text>
    </g>
  </g>
</svg>
