<?xml version="1.0" standalone="no"?>
<!DOCTYPE svg PUBLIC "-//W3C//DTD SVG 20010904//EN"
 "http://www.w3.org/TR/2001/REC-SVG-20010904/DTD/svg10.dtd">
<svg version="1.0" xmlns="http://www.w3.org/2000/svg"
 width="612.000000pt" height="612.000000pt" viewBox="0 0 612.000000 612.000000"
 preserveAspectRatio="xMidYMid meet">
<metadata>
Created by potrace 1.11, written by Peter Selinger 2001-2013
</metadata>
<g transform="translate(0.000000,612.000000) scale(0.100000,-0.100000)"
fill="#000000" stroke="none">
<path d="M1450 6111 c0 -6 -7 -8 -15 -5 -9 4 -15 0 -15 -9 0 -8 -8 -21 -17
-28 -16 -13 -17 -12 -4 4 8 9 11 21 7 25 -4 4 -14 -2 -22 -12 -8 -11 -14 -14
-14 -7 0 8 -9 6 -27 -7 -16 -11 -38 -22 -50 -26 -11 -4 -24 -13 -27 -21 -3 -8
-10 -15 -16 -15 -16 0 -50 -33 -50 -50 0 -13 -1 -13 -10 0 -8 13 -11 11 -16
-7 -4 -13 -13 -23 -22 -23 -8 0 -13 -2 -10 -5 3 -3 -16 -28 -43 -55 -45 -46
-54 -60 -50 -83 1 -5 -3 -6 -8 -2 -10 6 -91 -105 -91 -124 0 -6 -4 -11 -8 -11
-10 0 -37 -50 -34 -62 1 -5 -2 -8 -8 -8 -8 0 -163 -302 -198 -388 -15 -35
-112 -301 -116 -317 -1 -5 -33 -102 -70 -215 -37 -113 -79 -240 -92 -282 -60
-195 -75 -241 -114 -368 -23 -74 -43 -142 -45 -150 -2 -8 -27 -87 -55 -175
-28 -88 -53 -167 -55 -175 -2 -8 -18 -60 -35 -115 -53 -168 -81 -267 -77 -271
2 -2 10 15 17 38 49 152 132 316 191 380 43 46 49 49 70 37 13 -6 31 -21 41
-33 46 -56 229 -467 247 -557 6 -30 13 -64 16 -77 2 -13 6 -31 9 -40 3 -9 7
-35 11 -57 10 -72 57 -249 73 -280 9 -16 17 -36 18 -44 2 -8 8 -17 14 -21 7
-4 12 -11 12 -16 1 -23 12 -34 32 -30 16 3 22 -1 22 -16 0 -18 -1 -18 -13 -2
-7 10 -13 12 -13 6 0 -7 13 -20 30 -31 16 -10 27 -21 22 -26 -4 -4 0 -5 8 -3
8 3 24 -2 34 -11 11 -9 16 -10 12 -3 -4 6 -2 12 3 12 7 0 7 7 -1 20 -15 23
-33 27 -25 6 4 -10 1 -13 -9 -9 -11 4 -12 9 -4 18 13 16 65 13 65 -4 0 -6 6
-16 14 -20 9 -6 10 -11 2 -15 -6 -4 -11 -2 -11 4 0 6 -5 8 -10 5 -12 -7 -14
-26 -2 -24 27 5 52 -3 52 -16 0 -9 7 -18 15 -21 8 -4 15 -12 15 -20 0 -8 5
-14 11 -14 5 0 8 4 4 9 -3 5 -1 12 3 15 5 3 9 -6 8 -20 -1 -20 8 -31 42 -50
24 -13 47 -22 52 -19 4 3 11 0 13 -5 3 -6 4 -5 3 2 -2 7 -8 14 -14 14 -7 1
-17 2 -23 3 -8 1 -8 6 1 16 14 17 0 21 -17 4 -8 -8 -13 -7 -18 2 -5 7 -4 10 3
5 6 -3 13 -2 17 3 4 8 42 9 64 2 2 0 -2 -8 -9 -16 -7 -8 -8 -15 -2 -15 16 0
34 27 22 35 -5 3 -10 12 -10 18 0 7 5 5 10 -5 6 -10 18 -14 30 -11 11 3 20 0
20 -6 0 -5 -7 -8 -15 -5 -11 5 -13 2 -9 -10 3 -9 10 -13 15 -10 5 3 9 -3 9
-13 0 -10 4 -14 8 -8 16 22 30 11 62 -46 19 -32 37 -59 42 -59 4 0 8 -6 8 -13
0 -7 16 -28 35 -47 30 -30 36 -32 52 -19 17 13 17 13 4 -4 -13 -16 -13 -20 0
-28 14 -9 28 -12 42 -10 4 0 7 -4 7 -9 0 -19 27 -10 37 12 8 19 10 20 16 4 4
-10 3 -15 -3 -11 -6 3 -10 0 -10 -7 0 -8 9 -14 19 -15 19 -2 21 7 7 39 -5 10
-6 23 -3 30 3 7 6 2 6 -11 1 -23 2 -23 19 -8 10 10 23 17 28 17 4 0 -1 -7 -13
-15 -20 -14 -25 -37 -10 -51 4 -4 8 -2 8 4 1 7 2 16 3 21 2 20 16 22 38 7 21
-15 24 -15 41 6 10 13 16 17 12 10 -3 -6 -1 -12 4 -12 6 0 11 8 11 17 0 9 3
14 6 11 9 -10 45 32 38 44 -4 7 -3 8 4 4 7 -4 12 -2 12 4 0 6 5 8 12 4 7 -5 9
0 6 14 -4 16 -2 19 10 15 10 -4 13 -2 8 5 -4 7 -3 12 2 12 6 0 13 -11 16 -25
4 -14 18 -51 33 -83 14 -31 27 -64 29 -73 5 -23 103 -210 120 -230 8 -9 11
-19 7 -22 -3 -4 1 -7 11 -7 9 0 15 -4 12 -8 -3 -5 6 -20 20 -35 13 -14 24 -30
24 -34 0 -4 14 -17 30 -28 16 -11 30 -26 30 -33 0 -7 5 -10 10 -7 6 3 10 1 10
-6 0 -6 8 -9 19 -6 14 3 18 1 14 -9 -7 -20 17 -17 34 3 13 16 13 16 4 -4 -7
-14 -8 -24 -1 -28 5 -3 10 0 10 7 0 10 3 9 9 -1 5 -8 22 -16 37 -18 21 -3 25
-1 18 9 -5 8 -1 6 8 -5 14 -15 21 -16 38 -7 11 6 17 16 14 22 -4 7 -3 8 4 4 6
-4 8 -14 5 -24 -6 -15 -5 -15 10 -4 9 8 20 11 26 8 12 -8 22 19 10 31 -5 5 -1
9 10 9 12 0 17 -5 13 -15 -3 -9 0 -12 9 -9 8 3 13 11 11 18 -2 8 5 9 20 4 20
-6 21 -5 10 9 -10 12 -10 17 -1 23 8 4 9 3 5 -4 -4 -7 -1 -12 8 -12 9 0 16 5
16 10 0 6 11 15 25 22 13 6 22 14 20 18 -3 4 6 15 20 24 14 9 25 23 25 31 0 8
4 15 9 15 9 0 71 96 71 110 0 5 3 10 8 12 18 8 172 366 172 401 0 8 3 17 7 20
3 4 18 44 34 89 15 46 45 130 67 188 36 93 86 259 99 329 11 60 21 54 38 -25
20 -88 67 -236 90 -280 8 -16 15 -35 15 -42 0 -7 25 -77 56 -155 31 -78 92
-250 135 -382 73 -220 95 -284 149 -430 10 -27 35 -95 55 -150 48 -130 88
-229 171 -415 46 -105 133 -281 143 -290 4 -3 7 -10 8 -16 1 -6 25 -48 52 -93
28 -45 51 -84 51 -87 0 -12 35 -42 43 -37 6 3 7 1 3 -6 -9 -15 32 -73 46 -65
7 4 8 2 4 -4 -7 -12 13 -39 89 -116 64 -64 112 -106 124 -106 5 0 14 -7 21
-15 7 -8 16 -12 21 -9 5 3 9 1 9 -3 0 -12 80 -45 112 -47 16 0 28 -4 28 -7 0
-3 21 -6 46 -8 25 -1 43 2 41 6 -3 5 3 9 13 9 10 0 16 -4 14 -8 -11 -17 26 -7
36 10 11 16 11 16 6 -2 -5 -14 -2 -17 10 -12 8 3 18 6 20 6 3 0 3 4 0 9 -3 4
6 7 20 5 20 -2 24 1 20 13 -5 13 -4 14 8 4 11 -9 22 -7 52 9 64 37 104 67 97
73 -3 4 1 7 10 7 9 0 21 8 26 18 6 9 11 14 11 10 0 -5 9 1 20 12 12 12 18 26
14 32 -4 6 -3 8 4 4 6 -3 17 3 25 14 7 11 17 17 20 13 4 -3 7 -1 7 5 0 6 13
26 28 44 41 47 152 212 152 225 0 6 3 13 8 15 24 10 236 444 258 528 2 8 29
87 60 175 31 88 57 165 58 170 1 6 23 73 48 150 49 149 120 373 124 390 1 6
17 55 34 110 17 55 33 107 35 115 2 8 20 67 40 130 20 63 45 142 55 175 10 33
46 148 79 255 34 107 63 204 65 215 2 11 9 33 15 49 7 16 10 30 8 33 -2 2 -12
-18 -22 -44 -98 -268 -194 -433 -253 -433 -33 0 -67 45 -127 167 -30 62 -55
115 -55 118 0 2 -12 30 -26 62 -29 63 -44 98 -67 155 -9 21 -27 97 -41 170
-37 191 -67 312 -80 320 -6 4 -8 8 -4 8 11 0 -23 90 -34 90 -5 0 -7 4 -4 8 3
5 -4 18 -14 30 -11 12 -20 26 -20 32 0 9 -14 14 -32 11 -13 -2 -9 17 5 22 8 4
7 6 -3 6 -8 1 -26 10 -40 21 -23 18 -62 29 -47 13 4 -3 2 -12 -4 -20 -15 -18
-4 -17 14 2 13 12 14 10 12 -18 -4 -47 -4 -47 -15 -47 -5 0 -9 3 -8 8 3 11
-53 92 -64 92 -5 0 -7 4 -4 8 3 5 -4 15 -15 22 -10 8 -19 18 -19 23 0 15 -25
34 -38 29 -7 -2 -16 5 -19 17 -4 14 -13 21 -30 21 -13 0 -21 4 -18 10 3 6 -1
10 -10 10 -9 0 -13 -4 -10 -10 3 -5 1 -10 -6 -10 -7 0 -9 -3 -5 -7 4 -4 15 -8
23 -8 9 0 18 -6 20 -12 3 -7 0 -13 -7 -13 -6 0 -8 5 -5 10 3 6 1 10 -4 10 -6
0 -11 -4 -11 -10 0 -5 -9 -1 -19 9 -14 14 -30 18 -59 16 -21 -2 -45 1 -53 6
-8 5 -11 9 -6 9 4 0 -4 18 -18 40 -14 22 -25 43 -25 47 0 5 -24 34 -54 67 -35
38 -59 56 -67 51 -7 -5 -10 -4 -6 2 8 13 -12 31 -39 36 -10 1 -23 5 -29 8 -8
5 -39 5 -91 0 -7 -1 -14 -10 -17 -21 -3 -11 -11 -20 -19 -19 -10 0 -10 2 0 6
19 7 14 19 -8 19 -13 0 -19 -5 -16 -13 7 -17 -10 -17 -18 0 -3 6 -4 0 -2 -16
3 -22 1 -25 -10 -16 -10 8 -21 3 -45 -23 -17 -18 -38 -43 -46 -56 -16 -23 -16
-22 -43 45 -63 163 -153 339 -170 335 -6 -1 -9 2 -5 8 7 12 -26 64 -67 102
-15 15 -28 32 -28 37 0 6 -7 11 -16 11 -8 0 -13 4 -10 9 7 11 -22 23 -35 16
-5 -4 -6 0 -4 7 5 13 -23 29 -82 49 -18 6 -23 3 -24 -9 0 -12 -3 -10 -10 6 -5
13 -13 20 -19 17 -6 -4 -8 -12 -4 -18 3 -7 -1 -3 -10 7 -13 16 -18 17 -31 6
-11 -9 -15 -9 -15 -1 0 7 -5 9 -10 6 -6 -4 -8 -10 -5 -14 2 -5 -7 -6 -20 -3
-15 2 -25 0 -25 -7 0 -7 -4 -10 -9 -6 -5 3 -17 -3 -27 -12 -10 -10 -20 -18
-23 -18 -3 0 -5 -6 -4 -14 1 -9 -2 -10 -9 -3 -12 12 -50 -16 -42 -30 3 -5 1
-7 -4 -6 -30 9 -206 -254 -185 -276 4 -3 2 -6 -4 -6 -17 0 -162 -357 -178
-438 -2 -9 -21 -62 -43 -118 -35 -88 -97 -282 -108 -339 -11 -56 -14 -66 -23
-82 -8 -14 -10 -10 -16 22 -14 88 -142 472 -167 502 -6 7 -8 13 -5 13 3 0 -5
25 -19 57 -14 31 -65 176 -114 322 -142 426 -251 722 -350 946 -36 83 -92 203
-100 215 -14 22 -39 80 -37 84 1 2 -5 12 -14 22 -9 11 -23 35 -33 54 -9 19
-26 49 -36 65 -11 17 -27 44 -36 60 -9 17 -20 32 -23 35 -10 8 -51 69 -51 75
0 4 -6 12 -12 19 -7 7 -26 30 -43 51 -66 84 -208 214 -239 219 -8 1 -21 8 -30
15 -9 7 -23 11 -31 7 -9 -3 -14 -2 -11 3 7 11 -22 23 -36 14 -7 -3 -8 -1 -4 5
4 7 2 12 -3 12 -6 0 -11 -6 -12 -12 0 -7 -4 -4 -9 7 -5 11 -9 14 -9 6 -1 -9
-5 -10 -13 -4 -7 5 -37 11 -67 12 -42 2 -52 0 -46 -11 6 -10 5 -11 -6 0 -15
14 -33 16 -24 3 3 -5 0 -13 -6 -17 -7 -4 -9 -3 -5 4 3 6 2 13 -4 17 -5 3 -10
2 -10 -4z m97 -46 c0 -8 -4 -12 -9 -9 -5 3 -6 10 -3 15 9 13 12 11 12 -6z
m-122 -45 c3 -5 1 -10 -4 -10 -6 0 -11 5 -11 10 0 6 2 10 4 10 3 0 8 -4 11
-10z m95 4 c0 -8 -19 -13 -24 -6 -3 5 1 9 9 9 8 0 15 -2 15 -3z m105 -4 c3 -5
1 -10 -4 -10 -6 0 -11 5 -11 10 0 6 2 10 4 10 3 0 8 -4 11 -10z m183 -30 c-7
-10 -14 -17 -17 -15 -4 4 18 35 25 35 2 0 -1 -9 -8 -20z m-7 -117 c13 -16 12
-17 -3 -4 -10 7 -18 15 -18 17 0 8 8 3 21 -13z m-148 -73 c20 -8 37 -18 37
-22 0 -4 6 -8 13 -8 6 0 32 -18 57 -40 25 -22 50 -43 55 -48 6 -4 26 -27 45
-51 19 -23 47 -56 63 -74 15 -17 27 -34 27 -38 0 -4 6 -14 13 -21 20 -21 110
-165 169 -273 50 -92 218 -430 218 -440 0 -3 14 -34 30 -70 32 -71 61 -139
116 -275 19 -47 39 -94 44 -105 15 -33 60 -148 60 -155 0 -3 -17 -5 -37 -4
-49 1 -63 -4 -63 -25 1 -13 3 -13 16 4 11 14 15 15 14 5 -4 -28 0 -41 10 -35
6 4 7 -1 3 -11 -5 -15 -7 -14 -17 3 -7 13 -19 19 -33 17 -13 -2 -23 1 -23 7 0
5 5 7 10 4 6 -3 10 1 10 9 0 10 -6 13 -15 10 -8 -4 -15 -14 -15 -23 0 -13 -2
-13 -9 -2 -7 10 -12 8 -25 -10 -9 -13 -16 -20 -16 -16 0 5 -10 -3 -22 -16 -42
-46 -68 -77 -68 -82 0 -3 -11 -23 -24 -44 -14 -21 -22 -42 -19 -45 4 -3 1 -6
-5 -6 -7 0 -12 -8 -12 -18 0 -10 -4 -22 -9 -28 -4 -5 -21 -43 -36 -84 -16 -41
-32 -79 -36 -83 -3 -5 -16 12 -29 37 -12 25 -25 44 -30 41 -4 -3 -7 3 -6 13 0
9 -5 16 -12 14 -8 -1 -11 2 -8 7 4 5 -11 28 -32 50 -39 41 -58 52 -49 28 3 -8
1 -20 -5 -28 -8 -12 -9 -11 -5 2 3 8 -1 25 -8 38 -10 20 -13 21 -18 7 -4 -9
-2 -16 3 -16 6 0 10 -5 10 -11 0 -8 -6 -7 -17 2 -15 12 -16 12 -10 -4 4 -11 3
-16 -3 -12 -6 3 -10 0 -10 -7 0 -9 -3 -9 -10 2 -11 18 -29 20 -50 6 -12 -8
-13 -8 -2 4 6 8 12 18 12 23 0 14 -21 -4 -30 -27 -8 -19 -9 -19 -7 6 1 15 3
25 6 23 2 -3 10 0 18 6 7 6 13 8 13 3 0 -5 4 -3 9 5 6 9 11 10 15 2 4 -6 2
-11 -3 -11 -6 0 -11 -5 -11 -12 0 -6 3 -8 7 -5 3 4 13 1 21 -6 13 -10 15 -9 9
5 -3 10 -1 20 5 24 7 5 8 2 3 -6 -5 -9 -4 -11 3 -6 20 12 13 28 -9 21 -14 -5
-19 -3 -15 3 4 7 -3 9 -21 5 -16 -3 -35 -6 -44 -7 -24 -3 -90 -57 -82 -69 3
-6 1 -7 -5 -3 -11 7 -62 -52 -62 -72 0 -7 -5 -12 -11 -12 -5 0 -8 -4 -5 -9 3
-4 -6 -18 -19 -31 -23 -22 -25 -22 -32 -4 -12 32 -30 46 -37 29 -3 -8 -1 -15
4 -15 6 0 10 -8 10 -17 0 -15 -2 -15 -14 2 -7 10 -11 27 -8 37 2 10 -1 18 -7
18 -7 0 -9 -5 -5 -12 5 -7 3 -8 -6 -3 -9 5 -10 2 -5 -14 4 -12 2 -21 -4 -21
-6 0 -11 -5 -11 -11 0 -6 8 -8 19 -4 12 4 21 0 25 -11 5 -13 4 -14 -7 -6 -8 7
-17 9 -20 5 -4 -3 -16 2 -28 12 -17 17 -22 17 -31 5 -8 -12 -9 -11 -4 3 4 12
2 17 -6 14 -7 -2 -12 -13 -10 -23 2 -15 1 -16 -7 -5 -5 8 -6 21 -3 30 5 14 3
14 -10 3 -13 -10 -18 -10 -24 -1 -4 7 -3 9 4 5 6 -3 15 2 21 11 6 10 11 12 11
6 0 -16 30 -17 30 -2 0 5 -5 7 -12 3 -7 -4 -8 -3 -4 5 10 15 29 3 22 -15 -3
-8 -4 -14 -2 -14 3 0 12 -3 20 -6 14 -6 14 -2 -1 25 -19 32 -28 37 -38 21 -3
-5 -12 -7 -20 -3 -8 3 -15 0 -15 -7 0 -6 -4 -8 -10 -5 -5 3 -10 1 -10 -5 0 -6
-4 -9 -9 -5 -5 3 -16 -4 -25 -16 -16 -23 -36 -18 -36 10 0 10 -3 21 -7 25 -4
3 -8 12 -9 19 -4 20 -51 158 -79 232 -15 39 -32 85 -38 103 -6 17 -13 32 -17
32 -4 0 -7 6 -7 13 0 22 -84 188 -93 182 -4 -3 -7 3 -6 12 4 25 -77 138 -143
201 -52 50 -56 52 -69 35 -13 -17 -14 -17 -8 2 4 16 -2 23 -36 38 -31 13 -44
14 -52 6 -8 -9 -8 -10 1 -5 9 5 11 2 7 -9 -7 -19 -14 -14 -18 11 -3 21 -25 31
-27 12 -1 -7 -1 -17 0 -21 1 -5 -4 -5 -10 -1 -9 5 -10 2 -6 -9 4 -10 2 -14 -7
-11 -7 3 -13 11 -13 19 0 8 4 12 8 10 4 -3 9 1 12 9 5 11 -1 12 -31 3 -46 -13
-94 -45 -87 -58 4 -5 -1 -6 -9 -3 -13 5 -12 10 1 42 17 40 156 312 193 377 12
22 42 76 65 120 168 318 298 499 435 605 61 47 87 61 139 75 49 12 115 6 174
-15z m2171 -1156 c4 -10 2 -13 -6 -8 -8 5 -9 1 -4 -12 5 -14 4 -16 -4 -8 -6 6
-8 18 -4 27 8 21 10 21 18 1z m105 -17 c8 -10 7 -14 -2 -14 -8 0 -14 6 -14 14
0 7 1 13 2 13 2 0 8 -6 14 -13z m-3209 -1 c0 -2 -7 -7 -16 -10 -8 -3 -12 -2
-9 4 6 10 25 14 25 6z m86 -20 c0 -14 -3 -23 -7 -20 -6 3 -6 22 0 42 3 10 7
-2 7 -22z m3162 -11 c-3 -3 -9 2 -12 12 -6 14 -5 15 5 6 7 -7 10 -15 7 -18z
m-3238 5 c0 -5 -2 -10 -4 -10 -3 0 -8 5 -11 10 -3 6 -1 10 4 10 6 0 11 -4 11
-10z m120 -4 c0 -2 -8 -10 -17 -17 -16 -13 -17 -12 -4 4 13 16 21 21 21 13z
m2925 -16 c-3 -5 -12 -10 -18 -10 -7 0 -6 4 3 10 19 12 23 12 15 0z m66 -7
c13 -16 12 -17 -3 -4 -10 7 -18 15 -18 17 0 8 8 3 21 -13z m-3051 -13 c0 -5
-2 -10 -4 -10 -3 0 -8 5 -11 10 -3 6 -1 10 4 10 6 0 11 -4 11 -10z m193 -5 c4
-8 3 -16 -1 -19 -4 -3 -9 4 -9 15 -2 23 3 25 10 4z m2938 -2 c13 -16 12 -17
-3 -4 -17 13 -22 21 -14 21 2 0 10 -8 17 -17z m-3251 -13 c0 -5 -2 -10 -4 -10
-3 0 -8 5 -11 10 -3 6 -1 10 4 10 6 0 11 -4 11 -10z m240 0 c0 -5 -2 -10 -4
-10 -3 0 -8 5 -11 10 -3 6 -1 10 4 10 6 0 11 -4 11 -10z m2760 6 c0 -3 -4 -8
-10 -11 -5 -3 -10 -1 -10 4 0 6 5 11 10 11 6 0 10 -2 10 -4z m120 0 c0 -3 -4
-8 -10 -11 -5 -3 -10 -1 -10 4 0 6 5 11 10 11 6 0 10 -2 10 -4z m200 -6 c0 -5
-5 -10 -11 -10 -5 0 -7 5 -4 10 3 6 8 10 11 10 2 0 4 -4 4 -10z m-3220 -4 c0
-2 -8 -10 -17 -17 -16 -13 -17 -12 -4 4 13 16 21 21 21 13z m115 -56 c3 -5 1
-10 -4 -10 -6 0 -11 5 -11 10 0 6 2 10 4 10 3 0 8 -4 11 -10z m-60 -129 c37
-17 125 -102 125 -121 0 -4 3 -10 8 -12 10 -4 44 -54 73 -108 13 -25 27 -47
30 -50 10 -8 124 -247 187 -391 57 -131 59 -137 47 -173 -7 -20 -16 -54 -21
-74 -9 -45 -8 -42 -17 -67 -3 -11 -8 -31 -11 -45 -3 -14 -12 -61 -21 -105 -9
-44 -17 -89 -19 -100 -1 -11 -19 -51 -38 -90 l-36 -70 -27 59 c-14 32 -46 137
-70 233 -25 97 -52 200 -61 231 -9 30 -17 60 -18 66 -5 23 -48 161 -54 171 -4
6 -8 18 -9 27 -4 25 -66 162 -75 166 -4 2 -8 8 -8 12 0 16 -52 85 -62 82 -5
-1 -6 2 -3 8 8 14 -52 73 -65 65 -5 -3 -7 0 -4 8 5 13 -19 27 -51 31 -5 1 -13
5 -17 11 -4 5 -21 11 -37 13 -24 2 -31 -1 -32 -15 -1 -17 -1 -17 -6 0 -5 20
-30 17 -25 -3 2 -10 0 -11 -11 -2 -8 7 -17 8 -22 4 -4 -4 12 22 36 56 49 71
153 180 184 193 34 13 88 9 130 -10z m3063 -8 c26 -16 50 -40 98 -95 36 -42
132 -207 195 -336 l60 -123 -22 -67 c-13 -37 -23 -71 -24 -77 0 -5 -8 -11 -19
-13 -10 -2 -16 0 -12 6 3 6 -1 17 -9 25 -8 9 -15 20 -15 25 0 15 -48 54 -59
47 -6 -3 -11 -1 -11 4 0 6 6 11 13 11 6 1 -1 7 -18 14 -16 7 -33 11 -37 9 -5
-2 -8 1 -8 7 0 6 -5 8 -11 5 -6 -5 -3 -13 10 -22 12 -8 25 -12 29 -9 4 2 8
-10 9 -27 1 -30 1 -30 -6 -7 l-8 25 -12 -25 c-11 -25 -11 -25 -6 4 6 27 5 28
-12 15 -10 -8 -24 -20 -32 -28 -12 -11 -17 -9 -34 13 -10 14 -23 24 -28 20 -5
-3 -9 0 -9 6 0 7 8 9 22 5 17 -6 20 -4 15 9 -4 11 -3 15 4 11 5 -4 7 -15 4
-25 -5 -15 -1 -18 20 -15 15 1 32 8 38 15 10 10 6 11 -15 6 -18 -4 -28 -2 -28
4 0 6 5 8 10 5 6 -3 10 1 10 9 0 9 -4 16 -10 16 -5 0 -10 -5 -10 -11 0 -8 -6
-7 -17 2 -13 11 -17 11 -20 2 -3 -7 -10 -13 -17 -13 -20 0 -67 -40 -60 -51 3
-5 2 -9 -3 -8 -22 4 -32 -3 -28 -20 3 -14 -1 -18 -11 -14 -8 3 -14 2 -12 -3 1
-5 -6 -25 -17 -44 -19 -35 -21 -41 -24 -60 -2 -16 -21 -12 -21 5 0 22 -72 183
-103 233 -15 23 -32 40 -37 37 -6 -3 -10 3 -10 15 0 12 -4 18 -10 15 -5 -3
-10 -1 -10 4 0 6 -7 11 -16 11 -9 0 -12 5 -8 12 4 7 3 8 -4 4 -7 -4 -12 -2
-12 3 0 6 -3 10 -7 9 -5 0 -16 2 -25 6 -16 7 -15 12 9 59 58 116 134 236 187
293 83 92 130 107 194 67z m-1295 -187 c7 4 5 -1 -4 -11 -14 -14 -21 -15 -35
-6 -17 11 -17 11 3 6 16 -4 22 -2 20 7 -2 7 -2 10 0 5 3 -4 10 -4 16 -1z
m2008 -3 c13 -16 12 -17 -3 -4 -17 13 -22 21 -14 21 2 0 10 -8 17 -17z m38
-11 c16 -22 17 -29 5 -29 -7 0 -12 3 -9 5 3 3 -2 16 -10 29 -22 33 -10 29 14
-5z m-59 3 c9 -10 9 -15 1 -15 -6 0 -11 5 -11 11 0 5 -4 7 -10 4 -5 -3 -10 -1
-10 4 0 16 16 13 30 -4z m98 2 c14 4 14 3 2 -5 -16 -12 -30 -7 -29 11 0 9 2 9
5 0 3 -7 13 -9 22 -6z m-2074 -22 c-10 -8 -23 -15 -28 -15 -6 0 -1 7 10 15 10
8 23 15 28 15 6 0 1 -7 -10 -15z m1956 -5 c12 -7 10 -9 -8 -7 -12 0 -22 5 -22
9 0 11 12 10 30 -2z m43 -10 c-10 -11 -19 -20 -21 -20 -1 0 2 9 8 20 6 11 15
20 20 20 6 0 2 -9 -7 -20z m-2098 0 c3 -6 -1 -7 -9 -4 -18 7 -21 14 -7 14 6 0
13 -4 16 -10z m-55 -10 c0 -5 -2 -10 -4 -10 -3 0 -8 5 -11 10 -3 6 -1 10 4 10
6 0 11 -4 11 -10z m35 -8 c-3 -3 -11 0 -18 7 -9 10 -8 11 6 5 10 -3 15 -9 12
-12z m127 11 c-6 -2 -9 -10 -6 -15 4 -7 2 -8 -5 -4 -13 9 -5 26 12 25 9 0 8
-2 -1 -6z m1914 -16 c1 -9 -2 -15 -7 -11 -5 3 -7 9 -4 14 3 4 0 11 -5 13 -6 3
-5 4 1 3 7 -1 13 -10 15 -19z m-4036 9 c0 -2 -8 -10 -17 -17 -16 -13 -17 -12
-4 4 13 16 21 21 21 13z m4190 -11 c0 -2 -6 -5 -13 -8 -8 -3 -14 1 -14 8 0 7
6 11 14 8 7 -3 13 -6 13 -8z m-4060 1 c0 -2 -8 -10 -17 -17 -16 -13 -17 -12
-4 4 13 16 21 21 21 13z m3810 -26 c0 -5 -2 -10 -4 -10 -3 0 -8 5 -11 10 -3 6
-1 10 4 10 6 0 11 -4 11 -10z m320 6 c0 -3 -4 -8 -10 -11 -5 -3 -10 -1 -10 4
0 6 5 11 10 11 6 0 10 -2 10 -4z m-4143 -31 c0 -8 -4 -12 -9 -9 -5 3 -6 10 -3
15 9 13 12 11 12 -6z m53 11 c0 -2 -8 -10 -17 -17 -16 -13 -17 -12 -4 4 13 16
21 21 21 13z m1667 -81 c0 -8 -4 -12 -9 -9 -5 3 -6 10 -3 15 9 13 12 11 12 -6z
m-1732 -106 c120 -167 403 -780 431 -934 2 -11 10 -41 18 -67 13 -44 12 -51
-6 -87 -37 -75 -38 -74 -127 112 -69 142 -90 200 -126 337 -24 91 -56 201 -70
245 -30 92 -122 285 -136 285 -5 0 -9 5 -9 11 0 6 -16 26 -36 45 -27 25 -40
31 -49 24 -10 -8 -13 -6 -11 6 0 9 -5 19 -13 22 -8 2 -11 0 -8 -5 3 -5 0 -10
-8 -10 -8 0 -11 5 -8 10 4 6 0 8 -10 4 -9 -3 -18 -3 -21 1 -7 12 18 39 58 60
35 19 42 20 66 7 15 -8 44 -37 65 -66z m1255 42 c-5 -11 -15 -23 -21 -27 -6
-3 -3 5 6 20 20 30 30 35 15 7z m1642 -1 c-1 -7 3 -18 9 -26 6 -8 10 -14 8
-15 -2 0 -15 -2 -28 -3 -19 -2 -21 -1 -10 8 16 13 18 37 4 49 -6 5 -4 7 5 4 8
-2 14 -10 12 -17z m38 -21 c0 -6 -4 -7 -10 -4 -5 3 -10 11 -10 16 0 6 5 7 10
4 6 -3 10 -11 10 -16z m1390 1 c0 -5 -2 -10 -4 -10 -3 0 -8 5 -11 10 -3 6 -1
10 4 10 6 0 11 -4 11 -10z m30 0 c0 -5 -4 -10 -10 -10 -5 0 -10 5 -10 10 0 6
5 10 10 10 6 0 10 -4 10 -10z m35 -10 c0 -7 -11 -15 -25 -17 -18 -2 -21 -1
-10 6 8 5 18 7 22 5 4 -3 8 -1 8 5 0 5 -5 12 -10 14 -6 3 -5 4 2 3 7 -2 13 -9
13 -16z m-3171 -6 c3 -8 2 -12 -4 -9 -6 3 -10 10 -10 16 0 14 7 11 14 -7z
m797 -21 c46 -42 74 -89 59 -98 -6 -3 -16 -3 -22 1 -7 4 -9 3 -5 -1 4 -5 -3
-15 -15 -22 -13 -7 -17 -12 -10 -13 6 0 12 -5 12 -11 0 -5 -4 -8 -8 -5 -4 2
-12 2 -18 -2 -11 -8 -73 -135 -78 -162 -1 -3 -4 -9 -8 -15 -5 -9 -43 -152 -52
-201 -2 -11 -7 -30 -10 -44 -3 -14 -8 -36 -10 -50 -22 -121 -50 -210 -66 -210
-14 0 -38 74 -74 231 -19 85 -38 163 -41 174 -4 14 14 61 54 140 93 186 194
325 235 325 9 0 34 -17 57 -37z m2032 -2 c21 -20 50 -55 63 -78 24 -40 24 -43
9 -72 -8 -17 -13 -31 -9 -31 4 0 2 -6 -3 -12 -10 -13 -34 -78 -32 -88 0 -3 -6
-23 -15 -45 -8 -22 -20 -60 -26 -85 -6 -25 -12 -49 -14 -55 -1 -5 -8 -36 -15
-67 -13 -60 -25 -75 -29 -35 -1 12 -31 119 -66 237 l-65 215 27 40 c40 58 96
112 118 112 10 0 36 -16 57 -36z m-2793 19 c0 -5 -5 -10 -11 -10 -5 0 -7 5 -4
10 3 6 8 10 11 10 2 0 4 -4 4 -10z m53 -5 c-3 -9 -8 -14 -10 -11 -3 3 -2 9 2
15 9 16 15 13 8 -4z m18 -8 c-10 -9 -11 -8 -5 6 3 10 9 15 12 12 3 -3 0 -11
-7 -18z m64 13 c-3 -5 -1 -10 6 -10 7 0 10 -3 6 -6 -9 -9 -28 6 -22 17 4 5 8
9 11 9 3 0 2 -4 -1 -10z m1580 1 c3 -5 0 -13 -6 -17 -8 -5 -9 -3 -4 6 6 10 4
12 -9 7 -10 -4 -15 -3 -11 3 8 13 22 13 30 1z m1435 -16 c-7 -8 -17 -15 -23
-15 -6 0 -2 7 9 15 25 19 30 19 14 0z m80 0 c-7 -9 -15 -13 -18 -10 -3 3 -12
-1 -20 -8 -11 -8 -14 -8 -9 0 4 6 1 14 -5 17 -7 3 -1 3 14 1 15 -2 30 1 33 6
4 5 9 9 12 9 3 0 0 -7 -7 -15z m-3197 -10 c4 -8 3 -16 -1 -19 -4 -3 -9 4 -9
15 -2 23 3 25 10 4z m85 -6 c9 -12 9 -16 -1 -16 -7 0 -14 9 -14 20 -1 11 -1
18 0 16 2 -2 8 -11 15 -20z m76 5 c3 -8 2 -12 -4 -9 -6 3 -10 10 -10 16 0 14
7 11 14 -7z m2901 -2 c-3 -3 -11 0 -18 7 -9 10 -8 11 6 5 10 -3 15 -9 12 -12z
m-4525 -8 c0 -8 -19 -13 -24 -6 -3 5 1 9 9 9 8 0 15 -2 15 -3z m3134 -22 c3
-5 -1 -9 -9 -9 -8 0 -12 4 -9 9 3 4 7 8 9 8 2 0 6 -4 9 -8z m-2094 -76 c13
-17 13 -18 1 -11 -11 6 -13 4 -8 -9 4 -11 3 -15 -4 -11 -6 4 -8 13 -5 21 3 8
1 14 -5 14 -6 0 -7 5 -4 11 4 6 8 9 9 7 1 -2 8 -12 16 -22z m2440 14 c0 -5 -8
-10 -17 -10 -15 0 -16 2 -3 10 19 12 20 12 20 0z m1400 -6 c0 -2 -7 -4 -15 -4
-8 0 -15 4 -15 10 0 5 7 7 15 4 8 -4 15 -8 15 -10z m-2620 -18 c0 -8 -4 -18
-10 -21 -6 -4 -7 1 -3 11 5 13 3 15 -7 9 -9 -5 -11 -4 -6 3 10 17 26 15 26 -2z
m1425 5 c3 -5 2 -12 -3 -15 -5 -3 -9 1 -9 9 0 17 3 19 12 6z m-3669 -43 c31
-35 75 -108 66 -108 -5 0 -15 11 -22 25 -7 13 -18 22 -23 18 -6 -3 -7 -1 -4 4
8 12 -25 53 -42 53 -7 0 -9 -5 -5 -12 4 -7 3 -8 -4 -4 -6 4 -9 13 -5 22 3 8 2
14 -3 13 -5 -1 -18 2 -28 6 -19 8 -19 9 0 15 23 9 42 0 70 -32z m4859 24 c-3
-3 -11 0 -18 7 -9 10 -8 11 6 5 10 -3 15 -9 12 -12z m-3805 -2 c0 -5 -5 -10
-11 -10 -5 0 -7 5 -4 10 3 6 8 10 11 10 2 0 4 -4 4 -10z m66 -2 c4 -7 3 -8 -4
-4 -7 4 -12 2 -12 -5 0 -7 -3 -10 -6 -6 -6 5 3 27 11 27 2 0 7 -5 11 -12z m89
2 c-3 -5 -1 -10 6 -10 7 0 10 -3 6 -6 -9 -9 -28 6 -22 17 4 5 8 9 11 9 3 0 2
-4 -1 -10z m2300 -18 c1 -13 -1 -25 -5 -27 -4 -3 -7 6 -6 18 1 14 -6 25 -19
29 -17 6 -17 7 4 5 18 -1 25 -8 26 -25z m52 0 c-10 -10 -14 -22 -10 -27 5 -4
2 -5 -4 -1 -10 5 -9 13 3 32 9 13 19 22 22 19 3 -3 -2 -13 -11 -23z m-3637 2
c0 -8 -19 -13 -24 -6 -3 5 1 9 9 9 8 0 15 -2 15 -3z m1081 -11 c13 -17 13 -17
-6 -3 -11 8 -22 16 -24 17 -2 2 0 3 6 3 6 0 17 -8 24 -17z m149 13 c0 -3 -4
-8 -10 -11 -5 -3 -10 -1 -10 4 0 6 5 11 10 11 6 0 10 -2 10 -4z m1120 -2 c0
-8 -19 -13 -24 -6 -3 5 1 9 9 9 8 0 15 -2 15 -3z m1349 -8 c9 -11 9 -16 0 -22
-7 -4 -9 -3 -5 4 3 6 -2 15 -11 21 -10 6 -13 11 -7 11 6 0 17 -6 23 -14z m67
2 c3 -4 -1 -5 -10 -4 -8 1 -18 5 -22 8 -3 4 1 5 10 4 8 -1 18 -5 22 -8z
m-1499 -13 c0 -8 -4 -12 -9 -9 -5 3 -6 10 -3 15 9 13 12 11 12 -6z m1403 1 c0
-3 -4 -8 -10 -11 -5 -3 -10 -1 -10 4 0 6 5 11 10 11 6 0 10 -2 10 -4z m-2074
-53 c20 -21 93 -132 119 -182 16 -32 16 -37 -5 -120 -12 -47 -23 -93 -25 -101
-11 -54 -30 -115 -57 -183 -25 -60 -34 -75 -43 -65 -19 22 -63 131 -70 173 -3
22 -10 56 -15 75 -5 19 -12 51 -15 70 -3 19 -15 72 -27 117 l-20 82 25 44 c33
56 81 107 100 107 9 0 23 -8 33 -17z m1540 -24 c16 -22 34 -46 39 -52 23 -26
139 -243 140 -262 1 -5 -3 -23 -7 -40 -5 -16 -11 -43 -13 -60 -13 -76 -21 -97
-77 -210 -75 -149 -143 -265 -180 -306 -23 -25 -31 -29 -43 -19 -45 37 -235
380 -235 423 0 26 217 467 230 467 5 0 11 8 14 18 9 27 65 82 85 82 9 0 30
-18 47 -41z m-2953 -91 c14 -29 62 -138 106 -243 45 -104 86 -199 91 -210 5
-11 11 -33 14 -50 6 -37 11 -58 26 -114 6 -23 10 -45 7 -47 -11 -11 -137 261
-142 306 -6 50 -84 295 -116 364 -20 42 -21 46 -15 46 2 0 15 -24 29 -52z
m3831 -22 c28 -66 115 -281 150 -373 15 -42 15 -42 -23 -125 -21 -46 -41 -91
-44 -100 -12 -34 -27 -18 -78 85 -43 84 -57 128 -85 255 l-33 152 42 90 c35
77 43 87 49 69 5 -12 14 -36 22 -53z m-2795 -73 c-5 -21 -14 -60 -20 -88 -14
-61 -28 -91 -29 -59 0 12 -7 41 -16 65 -29 83 -29 113 2 144 l28 28 22 -26
c19 -22 21 -31 13 -64z m1238 20 c54 -75 52 -73 134 -235 32 -64 59 -124 59
-133 0 -26 -202 -431 -235 -472 -5 -7 -23 -30 -40 -52 -44 -59 -66 -54 -126
29 -57 78 -149 255 -149 286 0 12 7 57 16 100 9 44 17 84 18 89 3 21 141 284
184 350 38 59 76 105 88 105 2 0 25 -30 51 -67z m1188 40 c42 -45 97 -141 91
-160 -3 -10 -7 -29 -10 -43 -2 -14 -12 -54 -21 -90 -9 -36 -18 -72 -20 -80 -3
-14 -18 -48 -66 -157 -11 -24 -22 -43 -24 -43 -3 0 -16 24 -29 53 -13 28 -32
72 -44 97 -21 47 -52 175 -52 216 0 32 126 234 145 234 3 0 16 -12 30 -27z
m880 -30 c26 -57 27 -63 10 -148 -5 -29 -33 -163 -40 -195 -4 -20 -126 -262
-130 -258 -9 10 -85 211 -85 225 0 19 14 51 122 271 45 89 84 162 89 162 4 0
19 -26 34 -57z m314 -156 c93 -193 112 -238 127 -302 8 -33 16 -67 19 -75 2
-8 14 -51 25 -95 12 -44 24 -87 27 -95 3 -8 7 -19 9 -25 20 -83 119 -295 136
-295 5 0 7 -4 4 -9 -7 -11 69 -93 78 -84 3 3 6 1 6 -6 0 -7 4 -10 9 -7 5 4 11
1 13 -4 5 -15 41 -19 50 -6 5 7 8 3 8 -9 0 -17 2 -17 10 -5 5 8 10 11 10 5 -1
-15 -26 -45 -38 -45 -6 0 -16 -8 -21 -17 -6 -10 -11 -14 -11 -9 0 5 -6 4 -13
-2 -15 -12 -60 7 -87 36 -67 73 -216 362 -369 714 -33 76 -65 163 -72 195 -7
32 -14 63 -16 68 -1 6 -8 34 -14 64 -11 50 -10 57 11 97 13 23 28 40 32 38 5
-3 35 -60 67 -127z m-3709 -211 c0 -28 -179 -399 -204 -424 -11 -12 -18 -4
-41 45 l-27 58 22 110 c13 61 24 119 26 130 7 49 16 71 75 185 l62 122 43
-106 c24 -59 44 -113 44 -120z m3919 101 c47 -93 67 -141 75 -183 15 -74 75
-269 103 -332 8 -19 13 -36 10 -38 -2 -3 -33 59 -67 138 -35 79 -72 163 -83
188 -56 127 -66 156 -83 250 -3 14 -9 40 -14 59 -14 50 2 28 59 -82z m-3656
-15 c32 -64 60 -128 63 -142 2 -14 7 -41 10 -60 3 -19 7 -37 9 -40 2 -3 6 -25
10 -49 3 -24 10 -53 14 -65 5 -11 7 -31 5 -43 -6 -36 -76 -175 -84 -166 -4 4
-49 112 -100 239 l-92 232 34 73 c19 41 41 89 49 107 7 17 16 32 19 32 3 -1
31 -54 63 -118z m472 -25 c24 -52 49 -120 56 -153 14 -65 16 -74 19 -89 1 -5
2 -17 1 -26 -1 -21 -93 -171 -125 -206 l-26 -28 -29 35 c-16 19 -44 58 -61 87
l-31 51 31 125 c16 69 41 150 55 181 13 30 31 72 40 92 8 20 18 34 22 31 3 -4
25 -49 48 -100z m1988 -24 c30 -60 41 -94 53 -168 6 -39 15 -82 40 -185 28
-118 28 -118 -36 -205 -24 -32 -48 -55 -59 -55 -21 0 -78 54 -87 82 -3 10 -10
18 -15 18 -5 0 -9 4 -9 10 0 5 -14 33 -31 62 l-32 53 42 166 c34 139 85 289
98 289 1 0 18 -30 36 -67z m822 -10 c15 -38 28 -75 30 -83 2 -8 8 -35 15 -60
7 -25 13 -52 15 -60 2 -8 8 -35 15 -60 7 -25 14 -53 15 -63 8 -39 70 -248 102
-347 36 -107 94 -233 113 -245 6 -3 8 -10 5 -15 -3 -4 2 -10 10 -14 8 -3 15
-13 15 -21 0 -9 5 -13 10 -10 6 3 10 0 10 -8 0 -7 12 -23 26 -36 20 -18 28
-20 40 -10 10 8 14 8 14 0 0 -6 -4 -11 -10 -11 -5 0 -10 -4 -10 -10 0 -5 9
-10 21 -10 11 0 17 -4 14 -10 -9 -14 9 -12 24 3 10 10 11 8 5 -7 -6 -16 -4
-18 9 -13 9 3 17 3 17 -2 0 -11 79 -10 86 1 3 4 10 6 15 2 22 -13 -127 -194
-192 -232 -86 -51 -188 -4 -279 128 -13 19 -27 37 -30 40 -28 25 -220 409
-290 583 l-24 57 23 88 c28 105 30 113 51 217 13 65 19 94 25 128 7 39 66 157
75 152 4 -3 20 -35 35 -72z m-1261 -24 c13 -33 61 -224 91 -364 5 -21 -64
-171 -127 -274 -21 -34 -38 -65 -38 -67 0 -6 -42 -55 -78 -91 -45 -45 -75 -38
-135 35 -32 40 -34 58 -8 67 11 3 25 19 32 35 8 16 16 27 20 25 11 -7 52 92
44 106 -5 8 -4 10 4 5 11 -7 20 7 25 36 1 7 4 18 8 23 6 10 53 195 63 245 3
14 7 36 10 50 3 14 7 36 10 50 16 88 41 160 55 160 4 0 15 -19 24 -41z m-2185
-329 c18 -63 33 -122 35 -131 2 -8 18 -59 35 -113 l30 -98 -23 -36 c-31 -48
-86 -107 -109 -115 -10 -4 -27 -3 -37 3 -21 11 -82 70 -72 70 3 0 -5 11 -17
24 -31 33 -29 53 17 185 23 63 53 165 68 228 15 62 30 110 34 106 4 -4 21 -60
39 -123z m3047 -20 c5 -30 1 -40 -22 -64 l-29 -28 -22 26 c-12 15 -20 32 -18
39 2 6 11 44 20 82 9 39 19 77 22 85 6 16 38 -78 49 -140z m994 -166 c0 -7 6
-17 13 -21 6 -4 19 -20 27 -35 8 -15 19 -26 23 -25 5 1 13 -6 18 -16 6 -9 15
-14 21 -11 7 4 8 2 4 -4 -5 -8 2 -12 21 -12 26 -1 27 -1 9 -15 -17 -13 -22
-12 -47 2 -15 9 -40 37 -54 62 -14 25 -34 60 -45 76 -22 36 -26 58 -5 31 8
-11 15 -25 15 -32z m-3184 -146 c8 -16 12 -28 9 -28 -3 0 13 -27 35 -60 24
-36 46 -58 52 -54 6 4 8 3 5 -3 -3 -5 3 -17 13 -26 13 -11 20 -12 24 -4 2 7 5
4 5 -5 1 -9 5 -20 11 -23 6 -3 8 2 5 12 -3 10 0 8 6 -4 7 -13 19 -23 26 -23
10 0 -1 -30 -37 -96 -132 -248 -239 -356 -327 -332 -43 11 -110 81 -178 183
-66 99 -206 372 -201 394 8 47 51 159 58 155 5 -3 13 -17 19 -31 5 -14 14 -21
21 -17 7 4 8 3 4 -4 -4 -7 2 -22 13 -34 12 -12 21 -26 21 -32 0 -6 5 -5 12 2
15 15 28 15 28 1 0 -5 -4 -7 -10 -4 -5 3 -10 2 -10 -3 0 -9 19 -21 43 -27 4
-2 8 -3 10 -5 1 -1 9 -3 18 -5 17 -3 20 18 4 32 -4 4 -5 3 -1 -4 3 -6 2 -14
-4 -18 -5 -3 -10 1 -10 11 0 14 -2 15 -17 3 -14 -12 -16 -12 -8 0 6 10 4 12
-6 6 -12 -7 -12 -6 -1 7 11 14 10 18 -5 27 -10 6 -14 11 -9 11 6 0 20 -10 34
-22 l24 -23 -5 25 c-2 14 -2 19 0 12 3 -7 9 -10 14 -7 5 3 6 -1 2 -10 -5 -15
-3 -15 16 -4 11 8 21 17 21 21 0 5 5 8 11 8 8 0 8 -5 -1 -15 -8 -9 -8 -15 -2
-15 6 0 17 7 26 15 8 8 18 15 22 15 5 0 3 -5 -4 -12 -17 -17 -15 -33 2 -19 10
8 16 9 21 1 4 -6 1 -9 -6 -8 -6 2 -14 -3 -16 -10 -4 -11 -1 -12 13 -4 36 20
75 64 70 78 -3 8 0 13 7 11 6 -1 25 25 41 57 l29 59 23 -64 c13 -35 31 -76 40
-91z m-1659 47 c0 -8 -4 -12 -9 -9 -5 3 -6 10 -3 15 9 13 12 11 12 -6z m1280
0 c0 -8 -4 -12 -9 -9 -5 3 -6 10 -3 15 9 13 12 11 12 -6z m1448 5 c-3 -5 -12
-10 -18 -10 -7 0 -6 4 3 10 19 12 23 12 15 0z m1029 1 c3 -5 -2 -15 -12 -22
-15 -12 -16 -12 -5 2 7 9 10 19 6 22 -3 4 -4 7 0 7 3 0 8 -4 11 -9z m42 -23
c-1 -26 3 -32 22 -33 13 -1 27 5 31 13 6 10 8 3 7 -20 0 -20 -5 -34 -10 -30
-5 3 -6 -1 -1 -8 6 -9 4 -11 -5 -5 -8 5 -11 4 -6 -3 4 -7 -1 -10 -14 -7 -11 2
-20 0 -20 -6 0 -5 12 -7 27 -5 27 5 45 24 37 37 -2 4 0 10 6 14 6 4 7 11 4 17
-4 5 5 3 19 -7 17 -10 27 -13 32 -6 12 20 23 11 30 -26 4 -21 11 -42 15 -48 5
-5 9 -14 9 -20 6 -63 168 -468 195 -487 6 -4 8 -8 4 -8 -4 0 1 -15 12 -32 11
-18 28 -49 39 -69 11 -19 33 -50 49 -67 17 -18 28 -32 25 -32 -17 0 107 -102
130 -107 15 -3 27 -10 27 -15 0 -6 9 -8 20 -5 11 3 17 1 14 -4 -3 -6 8 -7 26
-4 17 3 29 2 26 -3 -3 -5 2 -9 10 -9 8 0 13 6 10 13 -3 8 0 16 6 20 7 4 8 3 4
-4 -4 -7 -2 -12 4 -12 6 0 8 -5 5 -10 -6 -10 44 9 55 20 9 10 70 41 70 36 0
-8 -201 -400 -208 -406 -4 -3 -34 -57 -66 -120 -33 -63 -67 -128 -77 -145 -10
-16 -28 -47 -39 -67 -18 -33 -115 -179 -140 -211 -5 -7 -25 -30 -44 -53 -20
-23 -33 -44 -29 -48 3 -3 2 -6 -4 -6 -5 0 -32 -20 -59 -45 -27 -24 -52 -45
-56 -45 -4 0 -13 -6 -20 -13 -35 -34 -138 -65 -198 -60 -41 4 -146 52 -177 82
-13 12 -23 18 -23 14 0 -4 -9 6 -20 22 -11 17 -20 27 -20 23 0 -4 -11 4 -25
18 -14 14 -25 29 -25 34 0 5 -10 17 -22 27 -21 16 -52 58 -100 132 -9 14 -21
31 -25 36 -43 51 -260 460 -328 615 -15 36 -38 88 -51 115 -12 28 -39 91 -59
140 -20 50 -43 104 -51 120 -39 89 -104 258 -100 263 3 2 22 6 43 8 78 7 80 7
118 42 8 7 15 10 15 6 0 -4 11 5 25 20 14 15 22 32 19 38 -5 7 -1 9 9 5 14 -5
33 17 29 36 -1 4 2 7 7 7 11 0 54 70 47 77 -2 3 3 13 11 23 17 19 86 186 86
208 1 25 17 11 37 -32 11 -24 25 -50 32 -58 7 -8 18 -23 24 -33 7 -11 19 -19
27 -19 10 1 13 -4 10 -15 -4 -9 -2 -13 2 -9 5 5 14 -1 22 -12 8 -11 21 -20 29
-20 8 0 14 -6 14 -12 0 -9 4 -8 10 2 5 8 7 22 5 30 -2 8 0 22 6 30 8 11 9 9 4
-10 -6 -20 -5 -23 6 -12 7 6 18 12 23 12 6 0 3 -5 -6 -11 -10 -5 -18 -14 -18
-20 0 -5 9 -4 20 3 17 10 22 10 28 1 6 -10 13 -9 28 3 14 11 15 14 3 11 -9 -3
-22 -1 -30 4 -9 5 -5 7 15 6 22 -2 30 -8 31 -24 1 -14 -3 -19 -13 -16 -8 3
-18 0 -22 -7 -4 -7 -13 -9 -19 -6 -6 4 -9 12 -6 17 4 5 2 9 -4 9 -5 0 -13 -5
-16 -10 -4 -6 -11 -8 -16 -5 -5 4 -9 2 -9 -4 0 -5 8 -10 18 -10 9 -1 26 -2 37
-2 23 -1 60 7 75 16 6 3 8 18 5 33 -5 26 -5 26 5 3 l10 -23 26 25 c16 16 23
31 18 39 -6 10 -4 10 9 -1 15 -12 17 -11 17 3 0 9 4 16 10 16 5 0 6 7 3 17 -4
11 -3 14 5 9 7 -4 12 -4 12 1 0 4 10 24 21 43 18 29 23 32 33 19 16 -23 58
-44 80 -40 10 1 16 -1 13 -7 -4 -5 0 -9 8 -9 10 0 12 4 5 12 -5 7 -7 15 -4 18
3 3 -9 5 -27 4 -29 -2 -33 1 -31 18 2 11 8 24 12 29 5 5 6 -2 3 -15 l-6 -24
22 23 c12 12 26 22 31 22 4 0 7 8 5 18 -2 15 2 32 9 32 1 0 2 -14 2 -32z m59
23 c3 -5 2 -12 -3 -15 -5 -3 -9 1 -9 9 0 17 3 19 12 6z m-2399 -16 c-1 -8 -5
-17 -8 -21 -5 -4 -4 16 1 34 3 9 9 -1 7 -13z m1220 -9 c0 -14 -3 -23 -7 -20
-6 3 -6 22 0 42 3 10 7 -2 7 -22z m-1439 -8 c-3 -8 -6 -5 -6 6 -1 11 2 17 5
13 3 -3 4 -12 1 -19z m257 14 c3 -5 -1 -9 -9 -9 -8 0 -12 4 -9 9 3 4 7 8 9 8
2 0 6 -4 9 -8z m2223 -14 c-3 -8 -6 -5 -6 6 -1 11 2 17 5 13 3 -3 4 -12 1 -19z
m113 7 c11 -13 10 -14 -4 -9 -9 3 -16 10 -16 15 0 13 6 11 20 -6z m-134 -26
c1 -19 -1 -26 -6 -19 -4 7 -6 20 -5 29 7 32 10 29 11 -10z m-2319 6 c-6 -7
-14 -9 -15 -4 -2 5 -9 6 -14 3 -6 -4 -8 -3 -5 2 3 5 15 10 26 11 17 1 18 -1 8
-12z m50 9 c-3 -3 -12 -4 -19 -1 -8 3 -5 6 6 6 11 1 17 -2 13 -5z m46 -25 c-8
-8 -13 -7 -18 2 -5 8 -4 10 3 5 7 -4 12 -2 12 5 0 7 3 9 7 6 4 -4 2 -12 -4
-18z m-1418 2 c3 -5 2 -12 -3 -15 -5 -3 -9 1 -9 9 0 17 3 19 12 6z m2609 -21
c-6 -6 -10 -3 -10 10 0 13 4 16 10 10 7 -7 7 -13 0 -20z m-840 -18 c3 -5 -1
-9 -9 -9 -8 0 -12 4 -9 9 3 4 7 8 9 8 2 0 6 -4 9 -8z m1477 -39 c13 -16 12
-17 -3 -4 -17 13 -22 21 -14 21 2 0 10 -8 17 -17z m273 -1 c3 -5 -1 -9 -9 -9
-8 0 -12 4 -9 9 3 4 7 8 9 8 2 0 6 -4 9 -8z m-297 -27 c0 -8 -4 -12 -9 -9 -5
3 -6 10 -3 15 9 13 12 11 12 -6z m-2969 -15 c-9 -14 -14 -16 -20 -7 -7 11 -12
2 -9 -16 1 -5 -3 -6 -9 -2 -8 5 -8 11 1 21 6 7 15 12 19 9 5 -3 11 -1 15 5 3
5 8 10 11 10 2 0 -1 -9 -8 -20z m1506 9 c-3 -6 0 -15 7 -20 9 -6 10 -9 2 -9
-15 0 -26 17 -18 30 3 6 8 10 11 10 3 0 2 -5 -2 -11z m79 -4 c-3 -9 -8 -14
-10 -11 -3 3 -2 9 2 15 9 16 15 13 8 -4z m-1489 -4 c3 -5 -1 -11 -9 -14 -9 -4
-12 -1 -8 9 6 16 10 17 17 5z m2952 -7 c-1 -8 -6 -17 -11 -21 -4 -4 -5 -3 -1
4 3 6 2 14 -4 18 -5 3 -10 1 -10 -6 0 -7 -3 -10 -6 -6 -9 9 3 24 19 24 8 0 14
-6 13 -13z m61 -6 c-3 -8 -6 -5 -6 6 -1 11 2 17 5 13 3 -3 4 -12 1 -19z m31
-3 c-3 -3 -9 2 -12 12 -6 14 -5 15 5 6 7 -7 10 -15 7 -18z m87 16 c-9 -8 -36
-10 -30 -2 2 4 11 8 20 8 8 0 13 -3 10 -6z m-1658 -26 c4 -4 3 -5 -4 -2 -6 4
-13 2 -15 -5 -3 -8 -6 -6 -10 4 -7 17 15 19 29 3z m-26 -24 c11 -10 16 -22 11
-25 -5 -3 -17 5 -26 19 -20 30 -13 32 15 6z m1505 -12 c3 -6 -5 -3 -20 6 -14
10 -26 19 -26 22 0 7 39 -17 46 -28z m-2731 -99 c-3 -5 -12 -10 -18 -10 -7 0
-6 4 3 10 19 12 23 12 15 0z m2360 -20 c-3 -5 -12 -10 -18 -10 -7 0 -6 4 3 10
19 12 23 12 15 0z m-2131 -26 c3 -8 2 -12 -4 -9 -6 3 -10 10 -10 16 0 14 7 11
14 -7z m3997 -1 c13 -16 12 -17 -3 -4 -10 7 -18 15 -18 17 0 8 8 3 21 -13z
m-94 -10 c-4 -3 -1 -13 6 -22 11 -14 10 -14 -5 -2 -16 12 -16 31 -1 31 4 0 3
-3 0 -7z m-3932 -23 c10 -11 16 -20 13 -20 -3 0 -13 9 -23 20 -10 11 -16 20
-13 20 3 0 13 -9 23 -20z m-49 -5 c-1 -8 -5 -17 -8 -21 -5 -4 -4 16 1 34 3 9
9 -1 7 -13z m4049 2 c3 -4 2 -5 -1 -2 -4 2 -14 0 -24 -5 -12 -6 -17 -5 -17 4
0 13 32 15 42 3z m48 -2 c-3 -9 -8 -14 -10 -11 -3 3 -2 9 2 15 9 16 15 13 8
-4z m-2058 -5 c-3 -5 -1 -10 6 -10 7 0 10 -3 6 -6 -9 -9 -28 6 -22 17 4 5 8 9
11 9 3 0 2 -4 -1 -10z m-32 -17 c-4 -11 -3 -14 5 -9 8 5 10 1 5 -11 -6 -16 -5
-17 13 -3 18 14 18 14 5 -2 -7 -10 -15 -18 -17 -18 -9 0 -24 41 -19 50 10 16
15 11 8 -7z m96 14 c-2 -1 -13 -9 -24 -17 -19 -14 -19 -14 -6 3 7 9 18 17 24
17 6 0 8 -1 6 -3z m-2177 -35 c-7 -2 -10 -7 -8 -11 3 -4 -4 -7 -15 -7 -18 0
-18 2 -5 12 9 6 13 14 9 18 -4 4 1 4 12 0 11 -5 14 -9 7 -12z m152 3 c-4 -8
-8 -15 -10 -15 -2 0 -4 7 -4 15 0 8 4 15 10 15 5 0 7 -7 4 -15z m1891 -3 c-3
-3 -11 0 -18 7 -9 10 -8 11 6 5 10 -3 15 -9 12 -12z m143 4 c-7 -8 -15 -12
-17 -11 -5 6 10 25 20 25 5 0 4 -6 -3 -14z m-94 -45 c-5 -6 -34 20 -34 30 0 5
8 1 18 -8 10 -10 17 -20 16 -22z m66 29 c0 -5 -7 -6 -17 -3 -10 4 -14 2 -10
-4 3 -5 0 -10 -8 -10 -11 0 -12 4 -4 14 13 15 39 18 39 3z m-111 -13 c8 -10 7
-14 -2 -14 -8 0 -14 6 -14 14 0 7 1 13 2 13 2 0 8 -6 14 -13z m-1409 -281 c0
-3 -4 -8 -10 -11 -5 -3 -10 -1 -10 4 0 6 5 11 10 11 6 0 10 -2 10 -4z m3050
-82 c0 -8 -19 -13 -24 -6 -3 5 1 9 9 9 8 0 15 -2 15 -3z m-3075 -32 c-3 -3
-11 0 -18 7 -9 10 -8 11 6 5 10 -3 15 -9 12 -12z m45 8 c0 -5 -5 -10 -11 -10
-5 0 -7 5 -4 10 3 6 8 10 11 10 2 0 4 -4 4 -10z m115 1 c-9 -8 -36 -10 -30 -2
2 4 11 8 20 8 8 0 13 -3 10 -6z m80 0 c-8 -7 -45 -9 -50 -1 -2 3 9 6 25 6 17
0 27 -2 25 -5z m80 -1 c3 -5 1 -10 -4 -10 -6 0 -11 5 -11 10 0 6 2 10 4 10 3
0 8 -4 11 -10z m50 0 c-3 -5 -12 -10 -18 -10 -7 0 -6 4 3 10 19 12 23 12 15 0z
m30 0 c3 -5 1 -10 -4 -10 -6 0 -11 5 -11 10 0 6 2 10 4 10 3 0 8 -4 11 -10z
m2835 4 c0 -8 -19 -13 -24 -6 -3 5 1 9 9 9 8 0 15 -2 15 -3z m-2950 -24 c0 -5
-5 -10 -11 -10 -5 0 -7 5 -4 10 3 6 8 10 11 10 2 0 4 -4 4 -10z m3011 -13
c-10 -9 -11 -8 -5 6 3 10 9 15 12 12 3 -3 0 -11 -7 -18z m-40 -20 c-10 -9 -11
-8 -5 6 3 10 9 15 12 12 3 -3 0 -11 -7 -18z m89 19 c0 -2 -7 -7 -16 -10 -8 -3
-12 -2 -9 4 6 10 25 14 25 6z m-3145 -26 c-1 -11 -5 -23 -10 -27 -4 -5 -4 -2
0 6 6 10 4 13 -7 9 -8 -4 -15 0 -15 8 0 7 4 11 8 8 4 -2 10 0 14 6 9 15 12 12
10 -10z m3002 7 c0 -7 -11 -13 -23 -13 -12 0 -20 4 -18 8 3 5 9 6 14 3 5 -3
11 -1 15 5 8 13 12 13 12 -3z m-2937 -8 c0 -4 -8 -9 -18 -11 -10 -3 -19 0 -19
6 0 7 9 12 19 12 10 0 18 -3 18 -7z m2854 -1 c-3 -4 -11 -5 -19 -1 -21 7 -19
12 4 10 11 0 18 -5 15 -9z m186 -4 c0 -9 5 -12 12 -8 7 4 8 3 4 -4 -9 -15 -33
-5 -33 13 0 8 4 15 9 15 4 0 8 -7 8 -16z m60 10 c0 -8 -19 -13 -24 -6 -3 5 1
9 9 9 8 0 15 -2 15 -3z m-3217 -31 c-3 -7 -9 -13 -13 -13 -4 0 -10 6 -13 13
-3 7 3 13 13 13 10 0 16 -6 13 -13z m3107 11 c0 -8 -19 -13 -24 -6 -3 5 1 9 9
9 8 0 15 -2 15 -3z m-63 -10 c-3 -3 -12 -4 -19 -1 -8 3 -5 6 6 6 11 1 17 -2
13 -5z m-2977 -14 c0 -5 -5 -10 -11 -10 -5 0 -7 5 -4 10 3 6 8 10 11 10 2 0 4
-4 4 -10z m2490 -1280 c0 -5 -4 -10 -10 -10 -5 0 -10 5 -10 10 0 6 5 10 10 10
6 0 10 -4 10 -10z m-364 -102 c3 -4 -1 -5 -10 -4 -8 1 -18 5 -22 8 -3 4 1 5
10 4 8 -1 18 -5 22 -8z m184 8 c0 -3 -4 -8 -10 -11 -5 -3 -10 -1 -10 4 0 6 5
11 10 11 6 0 10 -2 10 -4z m75 -5 c3 -5 2 -12 -3 -15 -5 -3 -9 1 -9 9 0 17 3
19 12 6z m145 4 c0 -7 -30 -13 -34 -7 -3 4 4 9 15 9 10 1 19 0 19 -2z m-360
-27 c0 -4 -4 -8 -9 -8 -6 0 -12 4 -15 8 -3 5 1 9 9 9 8 0 15 -4 15 -9z m34 -4
c3 -8 2 -12 -4 -9 -6 3 -10 10 -10 16 0 14 7 11 14 -7z m-29 -34 c3 -6 -1 -7
-9 -4 -18 7 -21 14 -7 14 6 0 13 -4 16 -10z m79 -18 c2 -4 -4 -8 -14 -8 -10 0
-16 4 -14 8 7 10 21 10 28 0z"/>
<path d="M1558 3768 c7 -27 17 -29 18 -4 1 13 -4 23 -11 23 -7 0 -10 -8 -7
-19z"/>
<path d="M2146 2372 c-7 -13 9 -37 28 -40 13 -3 17 1 13 12 -3 8 -1 18 5 22 6
4 8 3 4 -4 -3 -6 -1 -14 5 -17 7 -5 10 -1 7 10 -3 18 -53 31 -62 17z m28 -18
c3 -8 2 -12 -4 -9 -6 3 -10 10 -10 16 0 14 7 11 14 -7z"/>
<path d="M4552 2398 c-17 -17 -15 -26 6 -24 9 0 16 -5 15 -11 -2 -7 2 -13 8
-13 6 0 8 7 5 16 -3 8 -2 13 3 9 5 -3 12 1 15 7 3 7 3 2 0 -11 -7 -27 10 -22
26 9 8 16 6 18 -15 15 -14 -1 -28 2 -31 6 -7 12 -18 11 -32 -3z"/>
<path d="M4666 2381 c-4 -6 -2 -11 4 -11 6 0 8 -6 4 -12 -6 -10 -4 -10 7 0 9
9 10 15 2 23 -8 8 -13 8 -17 0z"/>
<path d="M4942 3931 c2 -8 14 -16 26 -18 25 -3 30 12 7 21 -8 3 -15 0 -15 -7
0 -8 -4 -7 -11 3 -8 12 -10 12 -7 1z"/>
<path d="M4900 3920 c-12 -7 -10 -9 8 -7 12 0 22 5 22 9 0 11 -12 10 -30 -2z"/>
<path d="M5198 3781 c8 -4 13 -11 13 -15 -1 -3 1 -6 4 -6 3 0 5 2 5 5 0 3 0
10 0 15 0 6 -8 10 -17 10 -14 0 -15 -2 -5 -9z"/>
<path d="M5230 3731 c0 -5 5 -13 10 -16 6 -3 10 -2 10 4 0 5 -4 13 -10 16 -5
3 -10 2 -10 -4z"/>
<path d="M905 2381 c-3 -5 -2 -12 3 -15 5 -3 9 1 9 9 0 17 -3 19 -12 6z"/>
<path d="M1115 2229 c-11 -17 1 -21 15 -4 8 9 8 15 2 15 -6 0 -14 -5 -17 -11z"/>
<path d="M1162 2218 c-7 -7 -12 -19 -11 -27 0 -11 3 -10 9 4 l9 20 1 -20 c1
-11 4 -14 7 -7 2 6 10 9 16 5 7 -4 5 2 -3 13 -8 10 -15 20 -15 21 -1 2 -7 -3
-13 -9z"/>
<path d="M1584 1961 c0 -14 4 -17 12 -11 6 6 15 6 20 2 4 -4 2 1 -5 11 -18 22
-27 22 -27 -2z"/>
</g>
</svg>
