<?xml version="1.0" standalone="no"?>
<!DOCTYPE svg PUBLIC "-//W3C//DTD SVG 20010904//EN"
 "http://www.w3.org/TR/2001/REC-SVG-20010904/DTD/svg10.dtd">
<svg version="1.0" xmlns="http://www.w3.org/2000/svg"
 width="830.000000pt" height="830.000000pt" viewBox="0 0 830.000000 830.000000"
 preserveAspectRatio="xMidYMid meet">
<metadata>
Created by potrace 1.11, written by Peter Selinger 2001-2013
</metadata>
<g transform="translate(0.000000,830.000000) scale(0.100000,-0.100000)"
fill="#000000" stroke="none">
<path d="M2014 8291 c3 -4 -9 -5 -26 -3 -26 4 -30 2 -25 -11 3 -9 1 -19 -5
-23 -6 -4 -8 -3 -4 4 8 14 -11 25 -26 15 -7 -4 -17 -8 -23 -9 -36 -7 -111 -52
-107 -65 1 -6 -1 -8 -5 -6 -11 7 -85 -38 -76 -46 3 -4 1 -7 -6 -7 -16 0 -211
-199 -211 -216 0 -4 -23 -32 -45 -58 -14 -14 -124 -187 -161 -251 -61 -105
-77 -134 -152 -285 -114 -227 -215 -465 -354 -835 -55 -147 -145 -396 -152
-420 -2 -5 -6 -17 -9 -25 -9 -22 -78 -223 -81 -235 -1 -5 -15 -48 -31 -95 -16
-47 -30 -87 -30 -90 -1 -3 -37 -115 -82 -250 -97 -294 -244 -746 -247 -763 -2
-7 -6 -21 -10 -32 -5 -11 -14 -36 -21 -56 -8 -20 -11 -39 -8 -43 4 -3 2 -6 -3
-6 -5 0 -10 -9 -11 -21 -1 -11 -10 -40 -19 -65 -9 -24 -15 -46 -13 -49 3 -2
20 40 39 93 67 195 189 446 222 460 5 2 14 9 21 15 78 72 150 19 246 -178 32
-66 80 -178 106 -250 26 -71 56 -152 66 -180 10 -27 34 -99 53 -160 19 -60 61
-198 95 -305 33 -107 67 -215 76 -240 27 -77 94 -206 125 -240 17 -19 30 -37
30 -42 0 -4 5 -8 11 -8 6 0 17 -7 26 -15 8 -8 19 -13 24 -10 5 4 9 2 9 -2 0
-15 44 -10 58 6 10 14 11 13 5 -4 -6 -18 -5 -18 10 -6 23 18 39 10 62 -35 11
-22 22 -41 25 -44 3 -3 16 -20 29 -38 12 -18 27 -29 33 -26 6 4 8 2 4 -4 -10
-17 63 -55 113 -58 36 -2 55 3 86 24 22 15 44 33 48 39 9 15 27 17 27 3 0 -27
96 -206 140 -261 64 -80 72 -89 82 -82 7 3 8 1 4 -5 -10 -16 91 -64 133 -64
55 1 112 28 105 50 -4 13 -3 14 4 4 7 -11 16 -7 42 16 18 17 29 35 26 41 -4 6
-2 9 6 6 14 -6 79 85 120 168 13 25 25 46 28 47 3 0 30 -62 59 -137 30 -76 63
-158 74 -183 11 -25 21 -47 22 -50 13 -39 100 -217 130 -265 14 -22 29 -49 34
-60 25 -57 192 -255 215 -255 4 0 16 -9 28 -20 12 -10 25 -17 29 -14 4 2 11
-1 14 -7 4 -5 13 -8 20 -5 8 3 15 0 17 -5 2 -6 28 -11 58 -11 43 -1 69 6 120
30 76 37 109 66 178 154 143 183 265 439 441 928 50 139 226 676 261 798 18
61 37 112 41 112 4 0 11 -15 15 -32 10 -46 233 -740 254 -793 12 -28 84 -247
86 -262 2 -11 13 -44 42 -123 3 -8 6 -19 8 -25 1 -5 12 -37 23 -70 12 -33 23
-67 26 -75 7 -28 165 -485 174 -505 5 -11 22 -56 37 -100 15 -44 33 -93 40
-110 6 -16 24 -64 39 -105 30 -82 148 -377 170 -425 7 -16 25 -59 40 -95 15
-36 36 -85 47 -110 38 -84 228 -465 259 -520 58 -100 178 -280 236 -353 58
-73 196 -217 207 -217 4 0 16 -9 28 -20 12 -11 28 -20 37 -20 8 0 11 -3 8 -7
-8 -7 140 -83 163 -83 9 0 22 6 30 13 12 10 12 9 1 -5 -11 -15 -11 -18 0 -19
8 0 42 -3 77 -5 46 -4 62 -2 62 8 0 9 3 10 8 2 8 -13 72 -6 72 8 0 5 5 6 10 3
13 -8 155 60 181 86 10 10 22 19 27 20 4 1 6 5 4 11 -1 5 2 7 7 4 11 -7 161
135 161 152 0 6 4 12 10 12 11 0 160 194 160 209 0 5 4 11 8 13 7 2 68 100
134 213 49 84 243 488 296 615 89 217 209 527 217 560 2 8 4 16 5 18 2 1 3 5
5 10 1 4 5 14 8 22 10 22 109 303 112 315 2 10 7 24 28 80 7 17 12 32 12 35 1
3 39 118 85 255 46 138 85 255 86 260 1 6 25 78 52 160 105 318 242 745 242
757 1 4 8 24 16 45 20 47 26 75 13 68 -5 -4 -9 -12 -9 -18 0 -7 -22 -71 -49
-143 -91 -244 -177 -390 -247 -419 -90 -37 -172 70 -291 380 -98 253 -113 297
-228 675 -31 102 -67 217 -81 255 -32 88 -101 228 -126 254 -10 11 -18 25 -18
31 0 6 -4 8 -10 5 -5 -3 -10 0 -10 8 0 17 -27 30 -42 20 -7 -3 -8 -1 -4 5 3 6
-1 15 -11 20 -23 12 -94 7 -102 -7 -5 -7 -13 -3 -24 9 -9 11 -13 20 -9 20 4 0
2 4 -3 8 -6 4 -16 19 -23 33 -36 69 -144 158 -178 145 -7 -3 -16 -1 -19 4 -8
12 -83 -23 -116 -54 l-28 -26 -51 102 c-28 57 -55 105 -58 108 -4 3 -13 17
-21 32 -23 45 -130 150 -146 144 -8 -3 -14 0 -12 7 1 7 -8 12 -20 11 -12 0
-20 3 -18 7 3 4 -9 9 -25 11 -17 3 -30 1 -30 -3 0 -4 -10 -5 -22 -1 -12 3 -19
1 -15 -5 3 -5 -4 -9 -16 -9 -12 1 -21 -4 -20 -11 2 -7 -3 -10 -10 -7 -16 6
-79 -45 -71 -58 3 -4 1 -7 -5 -6 -14 4 -100 -115 -131 -180 -14 -29 -28 -52
-31 -52 -3 0 -14 21 -24 48 -161 434 -297 692 -440 839 -41 42 -68 62 -76 57
-7 -4 -10 -3 -5 4 8 13 -52 44 -67 35 -6 -3 -7 -1 -3 5 10 16 -16 15 -34 0
-12 -11 -12 -10 -1 5 7 9 10 17 5 18 -59 5 -107 2 -111 -8 -3 -6 -11 -9 -18
-7 -19 8 -83 -28 -138 -76 -118 -105 -256 -334 -377 -630 -12 -30 -29 -69 -36
-87 -8 -17 -14 -34 -14 -38 0 -4 -6 -21 -14 -38 -36 -83 -281 -792 -290 -842
-1 -5 -7 -26 -13 -45 -6 -19 -26 -82 -44 -140 -31 -102 -49 -141 -49 -109 0 9
-18 76 -41 150 -22 74 -42 141 -44 149 -2 8 -42 128 -88 265 -47 138 -134 401
-195 585 -158 480 -263 779 -385 1095 -88 229 -166 420 -218 533 -16 35 -29
66 -29 69 0 13 -202 416 -244 486 -25 43 -46 81 -46 83 0 11 -183 274 -191
274 -5 0 -9 5 -9 10 0 27 -206 234 -225 226 -8 -3 -12 0 -10 7 5 12 -91 75
-102 69 -3 -2 -9 0 -12 5 -12 17 -83 45 -102 40 -10 -3 -17 -1 -13 4 6 10 5
11 -99 15 -42 1 -75 -1 -73 -5z m170 -123 c14 -1 26 -6 26 -10 0 -4 3 -7 8 -7
4 1 10 0 15 -1 4 -1 10 -3 15 -4 18 -5 88 -42 103 -56 34 -30 48 -40 55 -40
12 0 162 -156 215 -225 30 -38 57 -71 61 -73 5 -2 8 -8 8 -13 0 -5 15 -31 33
-57 61 -87 169 -275 256 -447 85 -167 105 -210 183 -390 91 -209 127 -295 193
-465 31 -80 60 -154 65 -165 21 -48 226 -611 234 -640 2 -5 6 -17 9 -25 3 -8
16 -44 27 -80 12 -35 26 -73 31 -82 6 -12 6 -18 -1 -18 -5 0 -10 4 -10 8 0 26
-131 158 -176 177 -46 19 -119 21 -108 3 5 -9 2 -9 -9 1 -15 12 -21 9 -19 -10
1 -4 -7 -5 -18 -2 -12 3 -22 -1 -26 -11 -3 -9 -11 -16 -18 -16 -15 0 -116
-111 -116 -127 0 -3 -6 -14 -14 -22 -40 -44 -182 -368 -240 -548 -16 -48 -34
-69 -37 -43 -3 19 -5 25 -17 48 -7 12 -11 22 -8 22 2 0 -9 27 -25 60 -16 33
-29 64 -29 69 0 4 -9 20 -21 35 -11 14 -18 26 -14 26 3 0 -8 20 -25 45 -17 25
-36 45 -42 45 -6 0 -8 3 -5 7 12 12 -60 71 -101 83 -43 13 -112 6 -112 -11 0
-6 -4 -8 -9 -5 -5 3 -27 -14 -50 -39 -64 -70 -117 -160 -167 -285 -16 -40 -34
-53 -34 -25 0 8 -4 15 -10 15 -5 0 -10 6 -10 14 0 8 -13 28 -30 46 -16 18 -30
36 -30 40 0 11 -47 40 -65 40 -8 0 -15 4 -15 9 0 5 -15 7 -32 6 -49 -4 -50 -4
-43 -15 3 -5 0 -7 -8 -4 -17 6 -67 -44 -109 -108 -17 -27 -34 -48 -37 -48 -4
0 -22 48 -40 108 -19 59 -42 127 -51 152 -10 25 -32 86 -50 135 -49 136 -99
263 -131 333 -16 35 -29 65 -29 68 0 6 -97 202 -113 229 -65 106 -111 175
-118 175 -5 0 -9 6 -9 13 0 23 -131 138 -186 164 -85 38 -188 28 -246 -24 -10
-9 -18 -13 -18 -8 0 4 -28 -21 -61 -56 -81 -84 -162 -210 -241 -369 -34 -71
-66 -130 -71 -130 -4 0 -3 8 2 18 5 9 22 51 36 92 29 81 29 82 135 360 73 191
91 235 122 307 10 23 18 45 18 48 0 4 14 36 30 72 17 35 30 67 30 70 0 3 6 19
14 36 8 18 24 53 35 80 96 220 280 597 341 702 17 28 33 57 37 65 4 8 21 38
38 65 18 28 46 73 63 100 17 28 35 55 39 60 5 6 26 35 48 65 21 30 47 64 57
75 62 72 105 120 116 129 7 6 27 24 45 40 96 87 221 145 332 153 39 3 72 7 74
9 2 2 10 -1 16 -6 7 -6 24 -11 39 -12z m-1040 -2060 c119 -61 226 -206 372
-508 42 -85 79 -164 84 -175 4 -11 15 -36 23 -55 25 -59 127 -319 164 -420 70
-193 67 -167 32 -262 -17 -45 -35 -94 -39 -108 -9 -28 -138 -446 -145 -470 -7
-25 -105 -284 -109 -287 -4 -4 -74 188 -113 312 -14 44 -28 87 -31 95 -3 8 -6
20 -7 26 -4 15 -62 205 -87 279 -11 33 -21 67 -23 75 -3 15 -41 128 -89 265
-67 195 -144 365 -211 470 -52 82 -119 158 -129 148 -3 -3 -6 -1 -6 5 0 13
-71 52 -95 52 -10 0 -14 -5 -10 -12 4 -7 0 -6 -7 3 -12 15 -18 15 -61 1 -74
-24 -161 -117 -227 -244 -29 -56 -37 -57 -14 -2 9 21 21 50 27 64 6 14 11 27
12 30 6 17 25 59 75 165 91 194 193 361 270 443 22 24 40 48 40 53 0 6 4 8 9
5 5 -3 15 1 22 10 7 8 25 22 41 30 16 8 26 19 23 24 -3 6 0 8 7 5 7 -3 27 -1
43 4 43 12 113 3 159 -21z m4099 21 c9 0 17 -4 17 -9 0 -4 12 -11 26 -14 21
-6 173 -136 167 -143 -2 -2 25 -44 58 -95 104 -160 344 -681 334 -726 -2 -9
-22 -62 -45 -117 -22 -55 -40 -101 -39 -103 1 -3 -12 -40 -31 -87 -7 -18 -45
-127 -57 -165 -3 -9 -15 11 -29 45 -52 129 -120 245 -142 245 -7 0 -11 4 -8 8
8 13 -48 51 -83 57 -16 3 -33 0 -36 -5 -4 -6 -10 -8 -16 -5 -5 3 -26 -6 -46
-20 -21 -14 -35 -25 -31 -25 3 0 -7 -13 -22 -30 -34 -36 -107 -184 -146 -297
-16 -46 -31 -83 -34 -83 -3 0 -12 21 -19 48 -43 149 -181 472 -202 472 -5 0
-9 6 -9 13 0 6 -20 34 -45 61 -25 26 -45 45 -45 41 0 -3 -7 1 -16 9 -8 9 -20
14 -25 11 -5 -4 -9 -1 -9 5 0 6 -4 8 -10 5 -5 -3 -10 -2 -10 4 0 7 -9 7 -27 0
-16 -6 -29 -10 -30 -10 -21 6 -34 -2 -29 -15 5 -14 4 -15 -8 -5 -12 10 -17 9
-28 -8 -7 -12 -18 -21 -25 -21 -7 0 -13 -5 -13 -12 0 -6 -2 -9 -5 -6 -3 3 1
21 9 39 8 19 45 105 81 192 57 138 179 393 195 407 3 3 14 21 24 40 17 31 113
163 141 194 57 64 162 116 220 109 16 -2 38 -4 48 -4z m-4730 -519 c-3 -12 -8
-19 -11 -16 -5 6 5 36 12 36 2 0 2 -9 -1 -20z m5662 -110 c-3 -5 -12 -10 -18
-10 -7 0 -6 4 3 10 19 12 23 12 15 0z m-5437 -35 c25 -6 30 -10 79 -54 71 -64
196 -293 295 -541 78 -195 195 -520 263 -730 124 -388 123 -382 109 -423 -19
-55 -92 -197 -121 -236 l-26 -34 -16 29 c-8 16 -15 31 -16 34 0 3 -8 21 -17
40 -22 48 -73 177 -115 290 -40 109 -132 368 -133 375 0 3 -2 10 -5 17 -5 17
-38 130 -41 143 -23 101 -189 544 -220 586 -5 8 -18 32 -29 54 -11 22 -24 45
-30 51 -5 6 -23 28 -39 48 -15 20 -33 33 -39 29 -5 -3 -7 -1 -4 4 10 16 -40
44 -88 49 -47 5 -101 -15 -112 -42 -3 -7 -11 -14 -18 -14 -8 0 -16 -8 -20 -17
-3 -10 -19 -34 -35 -53 -25 -30 -23 -22 19 62 27 53 63 118 80 143 17 25 31
49 31 53 0 4 8 15 18 24 9 9 33 33 52 52 19 20 47 42 62 49 15 6 28 15 28 18
0 7 49 3 88 -6z m2827 -59 c36 -26 116 -133 151 -201 11 -21 46 -90 89 -177
16 -31 11 -34 -25 -13 -19 10 -28 11 -39 2 -12 -9 -13 -9 -7 1 4 6 3 12 -3 12
-5 0 -12 -4 -16 -10 -3 -5 -12 -7 -20 -4 -8 4 -18 -1 -21 -10 -3 -9 -9 -14
-14 -11 -4 2 -18 -7 -30 -20 -13 -14 -21 -25 -17 -25 3 0 -4 -10 -16 -22 -26
-27 -89 -145 -107 -203 -7 -22 -16 -44 -20 -50 -8 -10 -71 -204 -109 -335 -44
-150 -53 -177 -93 -290 -22 -63 -43 -119 -48 -123 -5 -6 -61 129 -77 188 -15
58 -77 265 -83 280 -5 11 -27 78 -49 148 l-41 129 31 81 c17 45 37 96 44 112
8 17 28 64 46 105 106 250 222 426 304 465 63 29 102 23 170 -29z m2716 40 c5
3 9 1 9 -5 0 -6 17 -22 37 -36 21 -14 34 -25 30 -25 -4 0 6 -13 23 -30 16 -16
30 -32 30 -34 0 -3 15 -29 34 -58 18 -29 47 -81 65 -115 l31 -62 -45 -90 c-25
-50 -55 -114 -66 -143 -22 -54 -99 -275 -103 -293 -2 -8 -27 -91 -74 -240 -3
-11 -6 -22 -7 -25 -16 -76 -29 -90 -38 -42 -3 15 -17 61 -31 102 -31 91 -116
363 -116 370 0 3 -31 95 -69 206 l-68 200 33 60 c18 32 37 68 43 79 15 32 104
137 126 149 11 6 23 15 26 19 11 15 73 24 97 15 13 -4 28 -6 33 -2z m-5718
-314 c48 -20 95 -76 159 -192 25 -47 137 -304 143 -330 2 -8 24 -69 48 -135
60 -163 129 -367 168 -500 42 -147 158 -493 175 -527 38 -73 -10 -75 -81 -3
-58 58 -132 201 -215 415 -28 74 -57 149 -64 165 -7 17 -43 127 -80 245 -69
222 -116 359 -143 420 -57 127 -94 191 -141 242 -36 39 -82 72 -68 49 4 -6 3
-11 -2 -11 -6 0 -12 6 -15 14 -9 23 -72 -2 -113 -43 -37 -38 -46 -32 -14 9 11
14 20 29 20 33 0 11 41 67 72 98 15 15 24 30 20 34 -4 4 -2 6 3 5 14 -3 55 11
55 19 0 10 40 5 73 -7z m2079 -35 c20 -10 50 -34 67 -55 28 -36 121 -187 121
-197 0 -2 11 -28 24 -57 63 -138 62 -114 12 -272 -25 -78 -60 -193 -80 -256
-29 -99 -71 -223 -133 -398 -8 -24 -17 -41 -20 -39 -4 4 -36 87 -53 137 -5 14
-20 57 -35 95 -14 39 -50 152 -80 252 -64 213 -95 308 -125 382 l-21 55 51
105 c65 134 132 224 185 250 22 10 42 18 45 17 3 -2 22 -10 42 -19z m2104 -24
c78 -73 139 -184 244 -443 47 -116 65 -171 60 -185 -8 -19 -34 -105 -36 -115
0 -3 -3 -12 -7 -20 -3 -8 -15 -49 -27 -90 -12 -41 -23 -79 -24 -85 -2 -5 -9
-23 -15 -40 -7 -16 -14 -37 -16 -45 -5 -20 -98 -263 -123 -322 -136 -313 -219
-391 -311 -291 -20 21 -42 48 -49 58 -19 29 -128 256 -137 284 -4 13 -14 40
-23 60 -9 20 -16 38 -17 41 0 3 -6 19 -12 35 -6 17 -28 76 -48 133 l-36 103
20 57 c77 220 124 348 154 422 64 157 99 235 116 260 9 14 26 43 36 65 11 21
45 65 75 97 50 52 60 58 96 58 32 0 48 -7 80 -37z m2052 15 c7 -10 19 -18 25
-18 7 0 24 -20 39 -43 15 -23 33 -50 40 -60 11 -14 10 -23 -6 -50 -34 -57 -93
-181 -106 -221 -15 -46 -17 -43 -55 69 -14 44 -30 89 -35 100 -5 11 -13 34
-18 50 -6 17 -19 54 -30 82 l-20 53 35 30 c29 26 42 31 77 29 25 -2 46 -10 54
-21z m-888 -95 c20 -53 86 -238 161 -453 16 -47 53 -153 81 -236 l51 -152 -26
-73 c-30 -88 -95 -268 -104 -289 -3 -8 -7 -20 -8 -26 -8 -34 -47 -106 -54 -98
-23 27 -203 507 -201 539 0 3 -6 21 -14 40 -9 20 -15 36 -15 38 2 5 -25 99
-52 182 -16 50 -29 97 -29 106 0 26 176 479 186 479 1 0 12 -26 24 -57z
m-3845 7 c3 -5 1 -10 -4 -10 -6 0 -11 5 -11 10 0 6 2 10 4 10 3 0 8 -4 11 -10z
m4985 0 c0 -5 -5 -10 -11 -10 -5 0 -7 5 -4 10 3 6 8 10 11 10 2 0 4 -4 4 -10z
m-3320 -20 c0 -5 -2 -10 -4 -10 -3 0 -8 5 -11 10 -3 6 -1 10 4 10 6 0 11 -4
11 -10z m2911 -131 c27 -68 51 -128 53 -134 2 -5 6 -19 10 -30 44 -116 43
-109 15 -196 -12 -35 -22 -68 -24 -74 -1 -5 -4 -17 -7 -25 -3 -8 -13 -40 -21
-70 -9 -30 -25 -84 -35 -120 -26 -85 -147 -411 -176 -475 -13 -27 -27 -61 -31
-74 -7 -24 -8 -24 -22 10 -8 19 -16 42 -18 51 -2 9 -16 50 -30 90 -15 40 -28
80 -30 88 -2 8 -23 71 -46 138 -45 131 -45 135 -9 217 5 11 16 40 24 65 19 58
104 289 116 315 5 11 21 49 36 85 48 118 131 276 141 267 2 -2 26 -60 54 -128z
m-4504 31 c31 -25 103 -130 103 -150 0 -6 -14 -52 -30 -103 -37 -110 -112
-356 -114 -374 -3 -17 -26 -40 -27 -27 -2 22 -9 47 -42 150 -107 333 -109 342
-97 379 6 19 16 35 21 35 5 0 9 6 9 13 0 16 69 87 95 97 29 12 48 7 82 -20z
m1680 -26 c22 -26 49 -63 59 -83 11 -20 24 -43 30 -51 6 -8 18 -33 26 -55 9
-22 27 -65 40 -95 26 -57 40 -91 42 -100 1 -3 15 -39 31 -80 16 -41 30 -77 30
-80 0 -3 13 -40 29 -83 l28 -78 -20 -57 c-62 -172 -126 -350 -135 -372 -6 -14
-11 -27 -12 -30 -1 -3 -9 -22 -18 -44 -9 -21 -17 -40 -17 -43 0 -2 -18 -42
-40 -89 -22 -47 -40 -87 -40 -90 0 -15 -104 -168 -132 -193 -35 -32 -83 -47
-117 -36 -50 16 -121 105 -185 232 -55 109 -166 385 -166 411 0 11 7 36 15 56
8 20 13 36 11 36 -3 0 4 26 15 57 11 32 21 66 23 78 9 51 131 384 195 530 69
160 142 277 186 298 45 22 75 12 122 -39z m1606 45 c37 -20 82 -77 128 -162
24 -45 44 -84 45 -87 0 -3 10 -25 21 -50 l20 -45 -34 -110 c-19 -60 -38 -123
-43 -140 -19 -69 -49 -163 -64 -205 -9 -25 -19 -52 -21 -60 -2 -8 -23 -67 -45
-130 -23 -63 -46 -130 -51 -147 -6 -18 -14 -33 -18 -33 -6 0 -86 200 -98 245
-1 6 -27 84 -57 175 -77 235 -88 271 -89 305 -1 47 112 294 171 375 35 47 55
62 110 79 2 1 13 -4 25 -10z m1704 -44 c47 -51 101 -150 164 -295 22 -52 44
-104 49 -115 28 -63 200 -571 205 -605 7 -49 133 -358 155 -380 3 -3 11 -17
18 -31 19 -36 92 -110 103 -103 5 3 9 1 9 -4 0 -5 9 -12 20 -15 11 -3 20 -1
20 3 0 4 9 6 20 3 12 -3 20 0 20 6 0 7 4 10 8 7 10 -6 72 51 72 67 0 6 3 8 6
5 3 -4 -2 -20 -10 -37 -9 -17 -17 -34 -18 -38 -2 -5 -8 -15 -15 -23 -7 -8 -26
-33 -43 -54 -52 -66 -88 -88 -140 -83 -33 3 -55 13 -82 37 -21 19 -38 39 -38
46 0 7 -6 17 -12 21 -37 24 -147 269 -262 583 -39 109 -136 397 -141 420 -16
74 -138 450 -180 557 -14 34 -25 66 -25 72 0 26 57 -1 97 -44z m-132 -65 c1
-3 9 -23 19 -45 75 -167 272 -718 290 -810 6 -31 123 -376 143 -420 9 -22 17
-42 18 -45 2 -10 46 -106 58 -127 6 -12 23 -43 37 -69 33 -63 124 -159 141
-149 8 6 10 4 4 -5 -6 -10 -4 -12 8 -7 10 3 17 3 17 -2 0 -14 48 -19 60 -7 6
6 16 11 23 12 23 2 57 16 57 24 0 4 13 21 28 38 16 17 36 41 45 54 25 34 -48
-119 -83 -175 -17 -27 -30 -51 -30 -54 0 -8 -92 -116 -107 -126 -7 -4 -19 -14
-28 -23 -23 -23 -115 -30 -151 -11 -106 55 -235 277 -381 652 -29 77 -58 149
-63 160 -4 11 -14 36 -20 55 -7 19 -32 91 -56 160 -49 138 -103 297 -109 320
-3 8 -15 51 -29 95 -13 44 -38 124 -54 177 l-30 98 19 37 c10 20 19 40 19 44
0 11 91 173 108 192 15 17 17 17 31 -10 8 -15 16 -30 16 -33z m-5097 -137 c-2
-10 23 -90 55 -175 15 -38 24 -68 22 -68 -2 0 4 -20 15 -45 11 -25 20 -49 21
-53 2 -11 6 -23 28 -90 12 -34 21 -67 21 -73 0 -10 -91 -273 -109 -314 -5 -11
-14 -36 -21 -55 -7 -19 -21 -54 -31 -77 -11 -24 -19 -49 -19 -56 0 -7 -4 -17
-8 -22 -5 -6 -26 -50 -47 -100 -40 -92 -104 -209 -110 -203 -2 2 -37 85 -76
183 -50 122 -73 193 -72 220 0 38 2 48 16 85 5 14 34 112 78 265 11 39 28 93
38 120 11 28 38 102 61 165 23 63 55 145 71 181 15 36 33 77 38 92 9 23 34 40
29 20z m417 -75 c24 -56 65 -165 141 -368 13 -36 31 -90 39 -120 9 -30 37
-124 62 -209 l47 -153 -18 -52 c-22 -62 -102 -269 -121 -311 -46 -105 -54
-119 -59 -105 -3 8 -20 53 -37 100 -17 47 -35 96 -39 110 -4 14 -29 84 -55
155 -25 72 -48 137 -50 145 -2 8 -31 96 -65 194 -63 187 -65 202 -35 271 8 17
20 50 29 75 13 41 29 83 98 267 12 35 26 63 29 63 4 0 19 -28 34 -62z m705
-208 c55 -152 111 -319 117 -349 2 -13 8 -32 14 -43 5 -10 7 -18 3 -18 -3 0
-1 -7 6 -15 7 -8 10 -15 6 -15 -3 0 1 -18 10 -40 15 -38 15 -44 -1 -88 -30
-79 -113 -262 -124 -272 -3 -3 -22 -28 -41 -57 -33 -50 -52 -65 -95 -77 -47
-13 -117 64 -189 212 -71 143 -72 107 10 372 68 221 185 567 200 591 3 6 15
-11 24 -37 10 -27 37 -101 60 -164z m2714 -68 c36 -99 66 -186 66 -194 0 -8 3
-18 7 -22 4 -3 8 -13 9 -20 3 -22 33 -123 67 -226 17 -52 32 -99 33 -105 1 -5
14 -44 29 -85 15 -41 28 -84 28 -96 -1 -25 -72 -170 -119 -241 -46 -69 -110
-123 -146 -123 -38 0 -77 21 -108 59 -14 17 -33 40 -42 52 -22 27 -107 194
-142 276 l-26 63 66 212 c36 117 67 220 69 228 2 8 26 80 53 160 73 212 84
240 87 240 1 0 33 -80 69 -178z m1068 116 c11 -29 21 -62 23 -72 3 -11 16 -51
31 -90 35 -97 38 -106 74 -226 122 -408 227 -714 298 -870 16 -36 29 -67 29
-70 1 -11 78 -137 112 -185 39 -54 91 -112 91 -102 0 4 12 -3 26 -16 14 -12
29 -22 32 -22 4 0 12 -3 17 -6 22 -13 113 -9 128 5 8 8 17 13 19 10 6 -6 75
61 108 105 14 18 30 38 36 45 6 6 14 21 18 33 6 19 36 53 36 40 0 -2 -9 -26
-21 -53 -137 -319 -266 -547 -373 -658 -58 -60 -120 -104 -153 -109 -12 -2
-25 -6 -28 -9 -9 -9 -119 3 -126 14 -3 5 -9 9 -13 9 -11 -2 -60 26 -81 47 -99
95 -175 208 -282 420 -45 89 -80 162 -77 162 4 0 2 6 -4 13 -12 14 -125 290
-179 437 -19 52 -48 131 -64 175 l-30 80 27 70 c37 98 77 222 135 417 40 136
91 285 156 454 8 20 13 12 35 -48z m-1629 -289 c20 -63 50 -161 68 -219 17
-58 44 -145 60 -194 23 -72 26 -92 17 -110 -6 -11 -11 -22 -10 -23 3 -5 -44
-126 -91 -238 -41 -97 -137 -282 -173 -336 -32 -47 -92 -111 -136 -145 -17
-13 -128 -16 -128 -3 0 5 -6 9 -12 9 -19 0 -90 77 -135 145 -22 33 -65 110
-96 172 l-57 112 35 -15 c98 -40 189 42 279 252 21 47 39 93 42 103 2 9 21 68
43 131 21 63 60 185 85 270 58 195 47 161 83 255 37 99 32 98 63 19 15 -39 43
-123 63 -185z m-3035 -216 c29 -93 55 -179 58 -192 3 -13 9 -31 13 -40 5 -9 9
-18 9 -21 1 -6 -5 11 85 -263 l74 -227 -44 -78 c-82 -146 -152 -219 -230 -241
-25 -7 -41 -4 -80 14 -73 34 -124 97 -217 264 l-46 84 39 81 c48 99 84 185
121 291 36 102 125 385 142 448 7 26 15 47 18 47 3 0 29 -75 58 -167z m4117
75 c16 -51 29 -95 30 -98 1 -3 7 -23 13 -45 6 -22 27 -89 47 -150 19 -60 35
-116 35 -124 0 -23 -89 -149 -110 -156 -11 -4 -20 -10 -20 -14 0 -7 -26 -7
-62 -2 -14 2 -81 81 -105 122 -13 24 -22 53 -20 64 10 38 16 60 51 165 62 187
93 290 95 315 3 36 20 8 46 -77z m-2997 -346 c18 -53 34 -104 36 -112 3 -8 12
-33 22 -55 10 -22 18 -45 20 -51 4 -23 96 -201 117 -227 42 -53 85 -95 91 -90
3 4 6 2 6 -4 0 -17 55 -35 97 -32 41 4 40 3 95 50 l38 31 -14 -39 c-78 -216
-238 -551 -332 -693 -66 -101 -152 -190 -215 -225 -89 -48 -178 -35 -266 39
-17 14 -34 22 -38 18 -5 -4 -5 -2 -2 5 4 6 -3 20 -15 30 -13 10 -34 35 -48 55
-14 21 -28 38 -32 38 -5 0 -8 4 -8 10 0 5 -18 38 -41 72 -47 73 -196 375 -229
463 -12 33 -25 64 -29 70 -4 5 -20 43 -34 83 l-27 73 39 97 c39 95 97 258 121
337 16 52 26 62 35 34 14 -50 86 -203 97 -207 4 -2 8 -10 8 -18 0 -8 5 -14 10
-14 6 0 10 -5 10 -10 0 -22 82 -91 104 -88 11 1 27 -1 34 -6 7 -4 19 -3 26 3
7 6 16 8 19 4 4 -3 7 -1 7 6 0 7 4 10 9 7 8 -5 39 23 81 73 28 33 103 192 136
288 16 46 31 83 34 83 3 0 20 -44 38 -98z m-1681 -137 c22 -66 52 -150 66
-187 l26 -67 -37 -31 c-71 -59 -135 -32 -220 91 -26 39 -29 49 -18 58 15 13
96 175 117 233 7 21 16 35 19 30 4 -4 25 -61 47 -127z m3808 -27 c31 -87 96
-218 148 -294 27 -39 87 -95 104 -96 4 0 13 -3 18 -7 19 -14 76 -11 110 5 38
18 125 108 125 129 0 8 4 15 9 15 8 0 93 167 106 208 9 32 17 28 43 -21 44
-83 119 -145 172 -142 46 3 50 5 51 23 0 10 3 12 6 5 6 -16 53 13 53 32 0 7 6
15 14 18 7 3 27 29 44 59 20 34 33 48 36 38 3 -8 32 -94 64 -190 33 -96 67
-192 75 -213 9 -20 16 -41 17 -45 0 -4 23 -63 50 -132 91 -232 182 -419 267
-548 66 -100 186 -227 204 -216 7 4 9 3 6 -3 -8 -13 41 -36 55 -27 7 4 8 2 4
-4 -4 -7 -4 -12 1 -13 4 0 17 -2 28 -5 49 -10 97 -8 105 6 6 9 10 10 10 3 0
-6 9 -9 20 -6 11 3 20 9 20 14 0 5 7 9 16 9 9 0 12 5 8 12 -4 6 -3 8 4 5 13
-9 44 2 37 13 -3 5 4 11 14 15 19 6 106 99 125 134 5 9 12 18 15 21 19 15 74
113 143 250 43 85 78 152 78 149 0 -8 -185 -510 -204 -552 -8 -18 -30 -75 -50
-127 -21 -52 -42 -106 -48 -120 -6 -14 -26 -63 -45 -110 -19 -47 -48 -113 -64
-148 -16 -35 -29 -65 -29 -67 0 -2 -16 -39 -36 -82 -20 -43 -50 -107 -66 -143
-112 -245 -259 -520 -366 -685 -59 -90 -162 -228 -179 -238 -7 -5 -11 -12 -8
-18 4 -5 0 -9 -8 -9 -7 0 -20 -11 -27 -25 -7 -14 -16 -25 -20 -25 -3 0 -26
-20 -52 -44 -25 -23 -53 -46 -62 -49 -9 -4 -16 -11 -16 -17 0 -5 -7 -10 -15
-10 -8 0 -24 -9 -35 -20 -11 -11 -21 -20 -22 -19 -3 0 -22 -6 -63 -22 -51 -20
-67 -23 -155 -22 -95 0 -109 2 -164 26 -21 9 -42 17 -47 17 -5 0 -9 5 -9 10 0
6 -6 10 -14 10 -14 0 -118 77 -124 92 -2 4 -8 8 -12 8 -12 0 -60 48 -60 60 0
5 -9 12 -20 15 -11 3 -20 11 -20 16 0 6 -6 16 -12 23 -39 40 -130 163 -189
256 -79 123 -67 102 -158 270 -75 136 -207 411 -261 540 -13 30 -27 59 -32 64
-4 6 -8 16 -8 23 0 7 -11 36 -24 65 -35 77 -138 336 -217 548 -39 102 -72 192
-76 200 -3 8 -7 20 -9 25 -1 6 -17 48 -34 95 -17 47 -37 103 -45 125 -7 22
-34 99 -60 170 -59 164 -63 180 -30 128 14 -24 31 -43 37 -43 6 0 8 -3 5 -7
-12 -11 94 -105 111 -98 9 3 13 3 9 -1 -4 -4 1 -13 11 -20 20 -16 118 -19 127
-4 4 6 11 8 16 5 5 -4 9 -1 9 4 0 6 4 10 9 9 14 -5 91 64 84 75 -3 6 -1 7 5 3
10 -6 102 121 102 143 0 6 3 11 8 11 11 0 82 155 138 304 19 50 39 100 44 111
5 11 16 44 25 73 9 28 20 52 24 52 4 0 15 -24 26 -52z m-841 -184 c3 -8 2 -12
-4 -9 -6 3 -10 10 -10 16 0 14 7 11 14 -7z m3349 -269 c-3 -9 -8 -14 -10 -11
-3 3 -2 9 2 15 9 16 15 13 8 -4z"/>
<path d="M61 4314 c0 -11 3 -14 6 -6 3 7 2 16 -1 19 -3 4 -6 -2 -5 -13z"/>
<path d="M8232 3991 c-6 -17 -9 -31 -6 -31 7 0 25 52 20 57 -2 2 -8 -10 -14
-26z"/>
</g>
</svg>
